<?xml version="1.0" encoding="UTF-8" standalone="no"?>
<!DOCTYPE svg PUBLIC "-//W3C//DTD SVG 1.1//EN"
 "http://www.w3.org/Graphics/SVG/1.1/DTD/svg11.dtd">
<!-- Generated by graphviz version 12.2.1 (20241206.2353)
 -->
<!-- Title: G Pages: 1 -->
<svg width="1084pt" height="2403pt"
 viewBox="0.00 0.00 1084.45 2402.62" xmlns="http://www.w3.org/2000/svg" xmlns:xlink="http://www.w3.org/1999/xlink">
<g id="graph0" class="graph" transform="scale(1 1) rotate(0) translate(4 2398.62)">
<title>G</title>
<polygon fill="white" stroke="none" points="-4,4 -4,-2398.62 1080.45,-2398.62 1080.45,4 -4,4"/>
<polygon fill="none" stroke="black" points="8,-2364.12 8,-2390.62 96,-2390.62 96,-2364.12 8,-2364.12"/>
<text text-anchor="start" x="13" y="-2372.32" font-family="Times New Roman,serif" font-size="14.00">XML File:</text>
<polygon fill="none" stroke="black" points="96,-2364.12 96,-2390.62 283,-2390.62 283,-2364.12 96,-2364.12"/>
<text text-anchor="start" x="101" y="-2372.32" font-family="Times New Roman,serif" font-size="14.00">ancient&#45;lead&#45;white_JOHD.xml</text>
<polygon fill="none" stroke="black" points="8,-2337.62 8,-2364.12 96,-2364.12 96,-2337.62 8,-2337.62"/>
<text text-anchor="start" x="13" y="-2345.82" font-family="Times New Roman,serif" font-size="14.00">Sources:</text>
<polygon fill="none" stroke="black" points="96,-2337.62 96,-2364.12 283,-2364.12 283,-2337.62 96,-2337.62"/>
<text text-anchor="start" x="101" y="-2345.82" font-family="Times New Roman,serif" font-size="14.00">tlg0093_tlg004</text>
<polygon fill="none" stroke="black" points="8,-2311.12 8,-2337.62 96,-2337.62 96,-2311.12 8,-2311.12"/>
<text text-anchor="start" x="13" y="-2319.32" font-family="Times New Roman,serif" font-size="14.00">Engine:</text>
<polygon fill="none" stroke="black" points="96,-2311.12 96,-2337.62 283,-2337.62 283,-2311.12 96,-2311.12"/>
<text text-anchor="start" x="101" y="-2319.32" font-family="Times New Roman,serif" font-size="14.00">dot</text>
<polygon fill="none" stroke="black" points="8,-2268.12 8,-2311.12 96,-2311.12 96,-2268.12 8,-2268.12"/>
<text text-anchor="start" x="13" y="-2292.82" font-family="Times New Roman,serif" font-size="14.00">Active Filters:</text>
<polygon fill="none" stroke="black" points="96,-2268.12 96,-2311.12 283,-2311.12 283,-2268.12 96,-2268.12"/>
<text text-anchor="start" x="111.5" y="-2292.82" font-family="Times New Roman,serif" font-size="14.00">(a) Remove All Propositions</text>
<text text-anchor="start" x="101" y="-2276.32" font-family="Times New Roman,serif" font-size="14.00">(d) Remove &#39;Extrinsic&#39; Elements</text>
<polygon fill="none" stroke="black" points="8,-2142.62 8,-2268.12 96,-2268.12 96,-2142.62 8,-2142.62"/>
<text text-anchor="start" x="13" y="-2249.82" font-family="Times New Roman,serif" font-size="14.00">Parameters:</text>
<polygon fill="none" stroke="black" points="96,-2142.62 96,-2268.12 283,-2268.12 283,-2142.62 96,-2142.62"/>
<text text-anchor="start" x="118.25" y="-2249.82" font-family="Times New Roman,serif" font-size="14.00">overlap = scalexy</text>
<text text-anchor="start" x="125.75" y="-2233.32" font-family="Times New Roman,serif" font-size="14.00">splines = ortho</text>
<text text-anchor="start" x="124.62" y="-2216.82" font-family="Times New Roman,serif" font-size="14.00">nodesep = 0.25</text>
<text text-anchor="start" x="129.12" y="-2200.32" font-family="Times New Roman,serif" font-size="14.00">ranksep = 0.3</text>
<text text-anchor="start" x="101" y="-2183.82" font-family="Times New Roman,serif" font-size="14.00">outputorder = edgesfirst</text>
<text text-anchor="start" x="114.88" y="-2167.32" font-family="Times New Roman,serif" font-size="14.00">concentrate = false</text>
<text text-anchor="start" x="125" y="-2150.82" font-family="Times New Roman,serif" font-size="14.00">newrank = true</text>
<g id="clust2" class="cluster">
<title>cluster_tlg0093_tlg004_T151115_tlg0093_tlg004_Q151115</title>
<polygon fill="none" stroke="black" points="604.35,-8 604.35,-648.62 814.35,-648.62 814.35,-8 604.35,-8"/>
<text text-anchor="start" x="612.35" y="-631.32" font-family="Times New Roman,serif" font-size="14.00" fill="#82b366">Sequence</text>
</g>
<g id="clust3" class="cluster">
<title>cluster_tlg0093_tlg004_T180430_ENTAILED</title>
<polygon fill="none" stroke="black" stroke-dasharray="1,5" points="324.35,-706.62 324.35,-857.52 650.35,-857.52 650.35,-706.62 324.35,-706.62"/>
<text text-anchor="start" x="332.35" y="-840.22" font-family="Times New Roman,serif" font-size="14.00" fill="#82b366">Entailed</text>
</g>
<!-- tlg0093_tlg004.S162445&#45;&gt;tlg0093_tlg004.S162445_func -->
<g id="edge19" class="edge">
<title>tlg0093_tlg004.S162445&#45;&gt;tlg0093_tlg004.S162445_func</title>
<path fill="none" stroke="#b3a89a" stroke-dasharray="5,2" d="M922.81,-1922.1C922.27,-1916.24 921.5,-1909.28 920.52,-1900.78"/>
</g>
<!-- tlg0093_tlg004.S162445_func&#45;&gt;tlg0093_tlg004.T183406 -->
<g id="edge1" class="edge">
<title>tlg0093_tlg004.S162445_func&#45;&gt;tlg0093_tlg004.T183406</title>
<path fill="none" stroke="#b3a89a" stroke-dasharray="5,2" d="M922.92,-1864.17C923.74,-1859.85 924.17,-1855.76 924.21,-1850.94"/>
<polygon fill="#b3a89a" stroke="#b3a89a" points="926.66,-1851.07 924,-1844.15 921.77,-1851.22 926.66,-1851.07"/>
</g>
<!-- tlg0093_tlg004.T183406&#45;&gt;tlg0093_tlg004.S183406_employed -->
<g id="edge4" class="edge">
<title>tlg0093_tlg004.T183406&#45;&gt;tlg0093_tlg004.S183406_employed</title>
<path fill="none" stroke="#d79c02" d="M923.74,-1745.55C923.1,-1739.77 922.19,-1732.9 920.99,-1724.42"/>
</g>
<!-- tlg0093_tlg004.S162445_to_omitted_THESIS_1&#45;&gt;tlg0093_tlg004.S162445_employed -->
<g id="edge2" class="edge">
<title>tlg0093_tlg004.S162445_to_omitted_THESIS_1&#45;&gt;tlg0093_tlg004.S162445_employed</title>
<path fill="none" stroke="#d79c02" d="M921.33,-2102.38C921.53,-2097.33 921.14,-2091.24 920.18,-2080.99"/>
</g>
<!-- tlg0093_tlg004.S162445_employed&#45;&gt;tlg0093_tlg004.S162445 -->
<g id="edge20" class="edge">
<title>tlg0093_tlg004.S162445_employed&#45;&gt;tlg0093_tlg004.S162445</title>
<path fill="none" stroke="#d79c02" d="M922.27,-2044.35C922.96,-2040.06 923.33,-2035.98 923.37,-2031.18"/>
<polygon fill="#d79c02" stroke="#d79c02" points="925.83,-2031.34 923.22,-2024.4 920.93,-2031.45 925.83,-2031.34"/>
</g>
<!-- tlg0093_tlg004.S183406&#45;&gt;tlg0093_tlg004.S183406_func -->
<g id="edge21" class="edge">
<title>tlg0093_tlg004.S183406&#45;&gt;tlg0093_tlg004.S183406_func</title>
<path fill="none" stroke="#b39c84" d="M925.22,-1565.69C924.41,-1559.78 923.23,-1552.75 921.68,-1544.04"/>
</g>
<!-- tlg0093_tlg004.S183406_func&#45;&gt;tlg0093_tlg004.T170246 -->
<g id="edge3" class="edge">
<title>tlg0093_tlg004.S183406_func&#45;&gt;tlg0093_tlg004.T170246</title>
<path fill="none" stroke="#b39c84" d="M924.76,-1507.47C925.93,-1503.11 926.53,-1499.12 926.57,-1494.53"/>
<polygon fill="#b39c84" stroke="#b39c84" points="929.02,-1494.43 926.17,-1487.58 924.12,-1494.71 929.02,-1494.43"/>
</g>
<!-- tlg0093_tlg004.T170246&#45;&gt;tlg0093_tlg004.S150529_employed -->
<g id="edge6" class="edge">
<title>tlg0093_tlg004.T170246&#45;&gt;tlg0093_tlg004.S150529_employed</title>
<path fill="none" stroke="#d79c02" d="M893.92,-1403.05C891.27,-1397.26 888.14,-1390.22 884.25,-1381.37"/>
</g>
<!-- tlg0093_tlg004.S183406_employed&#45;&gt;tlg0093_tlg004.S183406 -->
<g id="edge22" class="edge">
<title>tlg0093_tlg004.S183406_employed&#45;&gt;tlg0093_tlg004.S183406</title>
<path fill="none" stroke="#d79c02" d="M923.83,-1687.76C924.87,-1683.35 925.47,-1679.29 925.62,-1674.67"/>
<polygon fill="#d79c02" stroke="#d79c02" points="928.07,-1674.71 925.48,-1667.76 923.17,-1674.8 928.07,-1674.71"/>
</g>
<!-- tlg0093_tlg004.S150529&#45;&gt;tlg0093_tlg004.S150529_func -->
<g id="edge23" class="edge">
<title>tlg0093_tlg004.S150529&#45;&gt;tlg0093_tlg004.S150529_func</title>
<path fill="none" stroke="#b3a89a" stroke-dasharray="5,2" d="M735.2,-1228.35C731.04,-1221.24 726.58,-1212.47 721.13,-1201.29"/>
</g>
<!-- tlg0093_tlg004.S150529_func&#45;&gt;tlg0093_tlg004.T151115 -->
<g id="edge5" class="edge">
<title>tlg0093_tlg004.S150529_func&#45;&gt;tlg0093_tlg004.T151115</title>
<path fill="none" stroke="#b3a89a" stroke-dasharray="5,2" d="M698.06,-1165.05C693.83,-1159.63 690.14,-1154.77 686.91,-1150.28"/>
<polygon fill="#b3a89a" stroke="#b3a89a" points="689.09,-1149.12 683.1,-1144.76 685.06,-1151.91 689.09,-1149.12"/>
</g>
<!-- tlg0093_tlg004.T151115&#45;&gt;tlg0093_tlg004.T151115_to_tlg0093_tlg004.T180430_1 -->
<g id="edge26" class="edge">
<title>tlg0093_tlg004.T151115&#45;&gt;tlg0093_tlg004.T151115_to_tlg0093_tlg004.T180430_1</title>
<path fill="none" stroke="#82b366" d="M621.16,-948.6C609.28,-934.47 595.04,-925.24 572.15,-914.02"/>
</g>
<!-- tlg0093_tlg004.T151115&#45;&gt;tlg0093_tlg004.T151115_analogy_to_tlg0093_tlg004.T154708_1 -->
<g id="edge32" class="edge">
<title>tlg0093_tlg004.T151115&#45;&gt;tlg0093_tlg004.T151115_analogy_to_tlg0093_tlg004.T154708_1</title>
<path fill="none" stroke="#d4d400" d="M503.89,-960.7C416.15,-917.8 376.06,-905.28 316.79,-900.13"/>
</g>
<!-- tlg0093_tlg004.T151115&#45;&gt;tlg0093_tlg004.q151115001 -->
<g id="edge25" class="edge">
<title>tlg0093_tlg004.T151115&#45;&gt;tlg0093_tlg004.q151115001</title>
<path fill="none" stroke="#82b366" d="M688.72,-948.21C721.23,-773.05 725.08,-729.86 709.85,-648.62"/>
</g>
<!-- tlg0093_tlg004.T151115&#45;&gt;tlg0093_tlg004.S153946_employed -->
<g id="edge16" class="edge">
<title>tlg0093_tlg004.T151115&#45;&gt;tlg0093_tlg004.S153946_employed</title>
<path fill="none" stroke="#d79c02" d="M714.65,-948.42C726.17,-934.26 740.79,-924.63 765.01,-911.74"/>
</g>
<!-- tlg0093_tlg004.S150529_employed&#45;&gt;tlg0093_tlg004.S150529 -->
<g id="edge24" class="edge">
<title>tlg0093_tlg004.S150529_employed&#45;&gt;tlg0093_tlg004.S150529</title>
<path fill="none" stroke="#d79c02" d="M849.52,-1347.02C843.26,-1342.27 838.04,-1336.94 832.01,-1328.96"/>
<polygon fill="#d79c02" stroke="#d79c02" points="834.18,-1327.78 828.1,-1323.53 830.21,-1330.64 834.18,-1327.78"/>
</g>
<!-- tlg0093_tlg004.T151115_to_tlg0093_tlg004.T180430_1&#45;&gt;tlg0093_tlg004.T180430 -->
<g id="edge27" class="edge">
<title>tlg0093_tlg004.T151115_to_tlg0093_tlg004.T180430_1&#45;&gt;tlg0093_tlg004.T180430</title>
<path fill="none" stroke="#82b366" d="M526.02,-870.96C521.42,-855.23 517.82,-843.1 514.76,-833.3"/>
<polygon fill="#82b366" stroke="#82b366" points="517.12,-832.61 512.66,-826.69 512.45,-834.1 517.12,-832.61"/>
</g>
<!-- tlg0093_tlg004.T151115_analogy_to_tlg0093_tlg004.T154708_1&#45;&gt;tlg0093_tlg004.T154708 -->
<g id="edge33" class="edge">
<title>tlg0093_tlg004.T151115_analogy_to_tlg0093_tlg004.T154708_1&#45;&gt;tlg0093_tlg004.T154708</title>
<path fill="none" stroke="#d4d400" d="M216.42,-872.18C199.53,-850.75 188.82,-836.77 181.33,-825.45"/>
<polygon fill="#d4d400" stroke="#d4d400" points="183.46,-824.23 177.65,-819.62 179.31,-826.85 183.46,-824.23"/>
</g>
<!-- tlg0093_tlg004.q151115001&#45;&gt;tlg0093_tlg004.q151115002 -->
<g id="edge7" class="edge">
<title>tlg0093_tlg004.q151115001&#45;&gt;tlg0093_tlg004.q151115002</title>
<path fill="none" stroke="#82b366" d="M699.62,-551.63C705.25,-495.13 706.62,-475.99 704.97,-454.14"/>
</g>
<!-- tlg0093_tlg004.q151115002&#45;&gt;tlg0093_tlg004.q151115003 -->
<g id="edge8" class="edge">
<title>tlg0093_tlg004.q151115002&#45;&gt;tlg0093_tlg004.q151115003</title>
<path fill="none" stroke="#82b366" d="M704.4,-389.75C705.24,-379.97 705.56,-373.97 705.51,-368.44"/>
</g>
<!-- tlg0093_tlg004.q151115003&#45;&gt;tlg0093_tlg004.q151115004 -->
<g id="edge9" class="edge">
<title>tlg0093_tlg004.q151115003&#45;&gt;tlg0093_tlg004.q151115004</title>
<path fill="none" stroke="#82b366" d="M706.14,-331.82C707,-322.97 707.64,-316.08 708.11,-310.43"/>
</g>
<!-- tlg0093_tlg004.q151115004&#45;&gt;tlg0093_tlg004.q151115005 -->
<g id="edge10" class="edge">
<title>tlg0093_tlg004.q151115004&#45;&gt;tlg0093_tlg004.q151115005</title>
<path fill="none" stroke="#82b366" d="M710.81,-231.64C711.3,-222.4 711.49,-216.02 711.41,-210.46"/>
</g>
<!-- tlg0093_tlg004.q151115005&#45;&gt;tlg0093_tlg004.q151115006 -->
<g id="edge11" class="edge">
<title>tlg0093_tlg004.q151115005&#45;&gt;tlg0093_tlg004.q151115006</title>
<path fill="none" stroke="#82b366" d="M710.65,-159.66C711.1,-150.2 711.32,-143.74 711.32,-138.48"/>
</g>
<!-- tlg0093_tlg004.q151115006&#45;&gt;tlg0093_tlg004.q151115007 -->
<g id="edge12" class="edge">
<title>tlg0093_tlg004.q151115006&#45;&gt;tlg0093_tlg004.q151115007</title>
<path fill="none" stroke="#82b366" d="M710.56,-87.64C710.97,-78.18 711.18,-71.71 711.19,-66.45"/>
</g>
<!-- tlg0093_tlg004.T180430&#45;&gt;tlg0093_tlg004.S181431_employed -->
<g id="edge14" class="edge">
<title>tlg0093_tlg004.T180430&#45;&gt;tlg0093_tlg004.S181431_employed</title>
<path fill="none" stroke="#d79c02" d="M478.45,-714.26C477.06,-705.49 476.11,-699.43 475.13,-693.02"/>
</g>
<!-- tlg0093_tlg004.S181431&#45;&gt;tlg0093_tlg004.S181431_func -->
<g id="edge28" class="edge">
<title>tlg0093_tlg004.S181431&#45;&gt;tlg0093_tlg004.S181431_func</title>
<path fill="none" stroke="#927b89" d="M474.53,-534.16C478.75,-523.81 482.46,-517.42 487.7,-511.1"/>
</g>
<!-- tlg0093_tlg004.S181431_func&#45;&gt;tlg0093_tlg004.q151115002 -->
<g id="edge13" class="edge">
<title>tlg0093_tlg004.S181431_func&#45;&gt;tlg0093_tlg004.q151115002</title>
<path fill="none" stroke="#927b89" d="M525.64,-477.95C562.49,-450.3 584.1,-435.14 604.6,-427.29"/>
<polygon fill="#927b89" stroke="#927b89" points="605.16,-429.69 611,-425.12 603.58,-425.05 605.16,-429.69"/>
</g>
<!-- tlg0093_tlg004.S181431_employed&#45;&gt;tlg0093_tlg004.S181431 -->
<g id="edge29" class="edge">
<title>tlg0093_tlg004.S181431_employed&#45;&gt;tlg0093_tlg004.S181431</title>
<path fill="none" stroke="#d79c02" d="M469.31,-656.29C468.47,-651.27 467.73,-646.78 467.05,-642.72"/>
<polygon fill="#d79c02" stroke="#d79c02" points="469.5,-642.5 465.94,-636 464.67,-643.3 469.5,-642.5"/>
</g>
<!-- tlg0093_tlg004.S153946&#45;&gt;tlg0093_tlg004.S153946_func -->
<g id="edge30" class="edge">
<title>tlg0093_tlg004.S153946&#45;&gt;tlg0093_tlg004.S153946_func</title>
<path fill="none" stroke="#927b89" d="M865.67,-720.69C876.25,-705.2 883.29,-697.34 892.95,-689.99"/>
</g>
<!-- tlg0093_tlg004.S153946_func&#45;&gt;tlg0093_tlg004.T170246 -->
<g id="edge15" class="edge">
<title>tlg0093_tlg004.S153946_func&#45;&gt;tlg0093_tlg004.T170246</title>
<path fill="none" stroke="#927b89" d="M936.01,-1395.27C1065.37,-1033.55 1061.92,-1013.7 923.99,-692.41"/>
<polygon fill="#927b89" stroke="#927b89" points="933.79,-1394.22 933.73,-1401.63 938.4,-1395.87 933.79,-1394.22"/>
</g>
<!-- tlg0093_tlg004.S153946_employed&#45;&gt;tlg0093_tlg004.S153946 -->
<g id="edge31" class="edge">
<title>tlg0093_tlg004.S153946_employed&#45;&gt;tlg0093_tlg004.S153946</title>
<path fill="none" stroke="#d79c02" d="M799.28,-878.05C804.2,-855.51 807.71,-839.81 810.76,-827.82"/>
<polygon fill="#d79c02" stroke="#d79c02" points="813.1,-828.56 812.53,-821.16 808.36,-827.3 813.1,-828.56"/>
</g>
<!-- tlg0093_tlg004.T154708&#45;&gt;tlg0093_tlg004.S160706_employed -->
<g id="edge18" class="edge">
<title>tlg0093_tlg004.T154708&#45;&gt;tlg0093_tlg004.S160706_employed</title>
<path fill="none" stroke="#d79c02" d="M147.34,-721.32C146.05,-710.08 147.05,-702.67 150.33,-692.87"/>
</g>
<!-- tlg0093_tlg004.S160706&#45;&gt;tlg0093_tlg004.S160706_func -->
<g id="edge34" class="edge">
<title>tlg0093_tlg004.S160706&#45;&gt;tlg0093_tlg004.S160706_func</title>
<path fill="none" stroke="#b3a89a" stroke-dasharray="5,2" d="M149.66,-533.67C149.11,-525.31 149.72,-519.3 151.46,-512.42"/>
</g>
<!-- tlg0093_tlg004.S160706_func&#45;&gt;tlg0093_tlg004.S160706_to_omitted_TARGET_THESIS_1 -->
<g id="edge17" class="edge">
<title>tlg0093_tlg004.S160706_func&#45;&gt;tlg0093_tlg004.S160706_to_omitted_TARGET_THESIS_1</title>
<path fill="none" stroke="#b3a89a" stroke-dasharray="5,2" d="M154.53,-475.9C152.56,-462.91 151.6,-454.9 151.64,-448.43"/>
<polygon fill="#b3a89a" stroke="#b3a89a" points="154.06,-448.93 152.19,-441.75 149.17,-448.52 154.06,-448.93"/>
</g>
<!-- tlg0093_tlg004.S160706_employed&#45;&gt;tlg0093_tlg004.S160706 -->
<g id="edge35" class="edge">
<title>tlg0093_tlg004.S160706_employed&#45;&gt;tlg0093_tlg004.S160706</title>
<path fill="none" stroke="#d79c02" d="M153.67,-656.18C152.68,-651.1 151.83,-646.6 151.12,-642.56"/>
<polygon fill="#d79c02" stroke="#d79c02" points="153.58,-642.41 150.03,-635.89 148.74,-643.2 153.58,-642.41"/>
</g>
<!-- tlg0093_tlg004.S162445 -->
<g id="node1" class="node">
<title>tlg0093_tlg004.S162445</title>
<ellipse fill="#f6ede6" stroke="#b3a89a" stroke-dasharray="5,2" cx="918.35" cy="-1972.5" rx="124.95" ry="50.12"/>
<text text-anchor="start" x="869.23" y="-1994.2" font-family="Times New Roman,serif" font-weight="bold" font-size="14.00">impl. SUPPORT</text>
<text text-anchor="start" x="848.6" y="-1980.2" font-family="Times New Roman,serif" font-size="14.00"> &#160;&#160;&#160;&#160;&#160;&#160;&#160;&#160;Theophrastus &#160;&#160;&#160;&#160;&#160;&#160;&#160;&#160;</text>
<text text-anchor="start" x="911.6" y="-1966.2" font-family="Times New Roman,serif" font-size="14.00">55</text>
<text text-anchor="start" x="870.73" y="-1952.2" font-family="Times New Roman,serif" font-style="italic" font-size="14.00">form: unspecified</text>
<text text-anchor="start" x="833.6" y="-1940.1" font-family="Times New Roman,serif" font-size="12.00">&quot;κύανος ὁ μὲν ... δὲ πεπυρωμένου&quot;</text>
</g>
<!-- tlg0093_tlg004.S162445_func -->
<g id="node2" class="node">
<title>tlg0093_tlg004.S162445_func</title>
<ellipse fill="#f6ede6" stroke="#b3a89a" stroke-dasharray="5,2" cx="918.35" cy="-1882.38" rx="71.69" ry="18"/>
<text text-anchor="middle" x="918.35" y="-1878.68" font-family="Times New Roman,serif" font-size="11.00">CONTEXTUALIZES</text>
</g>
<!-- tlg0093_tlg004.T183406 -->
<g id="node3" class="node">
<title>tlg0093_tlg004.T183406</title>
<path fill="#f0faf0" stroke="#82b366" d="M1064.45,-1842.38C1064.45,-1842.38 772.25,-1842.38 772.25,-1842.38 766.25,-1842.38 760.25,-1836.38 760.25,-1830.38 760.25,-1830.38 760.25,-1757.98 760.25,-1757.98 760.25,-1751.98 766.25,-1745.98 772.25,-1745.98 772.25,-1745.98 1064.45,-1745.98 1064.45,-1745.98 1070.45,-1745.98 1076.45,-1751.98 1076.45,-1757.98 1076.45,-1757.98 1076.45,-1830.38 1076.45,-1830.38 1076.45,-1836.38 1070.45,-1842.38 1064.45,-1842.38"/>
<text text-anchor="start" x="893.6" y="-1822.88" font-family="Times New Roman,serif" font-weight="bold" font-size="14.00">THESIS</text>
<text text-anchor="start" x="845.23" y="-1808.88" font-family="Times New Roman,serif" font-size="14.00"> &#160;&#160;&#160;&#160;&#160;&#160;pigment&#45;grinders &#160;&#160;&#160;&#160;&#160;&#160;</text>
<text text-anchor="start" x="911.6" y="-1794.88" font-family="Times New Roman,serif" font-size="14.00">55</text>
<text text-anchor="start" x="781.85" y="-1780.88" font-family="Times New Roman,serif" font-style="italic" font-size="14.00">The four colours made by kyanos from itself come</text>
<text text-anchor="start" x="848.98" y="-1766.88" font-family="Times New Roman,serif" font-style="italic" font-size="14.00">about by technical means</text>
<text text-anchor="start" x="838.1" y="-1754.78" font-family="Times New Roman,serif" font-size="12.00">&quot;τὸν μὲν κύανον ... τέχνῃ γίνεται&quot;</text>
</g>
<!-- tlg0093_tlg004.S162445_to_omitted_THESIS_1 -->
<g id="node4" class="node">
<title>tlg0093_tlg004.S162445_to_omitted_THESIS_1</title>
<path fill="#f0faf0" stroke="#82b366" d="M934.6,-2138.62C934.6,-2138.62 902.1,-2138.62 902.1,-2138.62 896.1,-2138.62 890.1,-2132.62 890.1,-2126.62 890.1,-2126.62 890.1,-2114.62 890.1,-2114.62 890.1,-2108.62 896.1,-2102.62 902.1,-2102.62 902.1,-2102.62 934.6,-2102.62 934.6,-2102.62 940.6,-2102.62 946.6,-2108.62 946.6,-2114.62 946.6,-2114.62 946.6,-2126.62 946.6,-2126.62 946.6,-2132.62 940.6,-2138.62 934.6,-2138.62"/>
<text text-anchor="start" x="898.48" y="-2122.17" font-family="Times New Roman,serif" font-weight="bold" font-size="11.00">THESIS</text>
<text text-anchor="start" x="898.1" y="-2111.17" font-family="Times New Roman,serif" font-style="italic" font-size="11.00">(omitted)</text>
</g>
<!-- tlg0093_tlg004.S162445_employed -->
<g id="node5" class="node">
<title>tlg0093_tlg004.S162445_employed</title>
<ellipse fill="#ffe6cc" stroke="#d79c02" cx="918.35" cy="-2062.62" rx="57.2" ry="18"/>
<text text-anchor="middle" x="918.35" y="-2058.92" font-family="Times New Roman,serif" font-size="11.00">EMPLOYED IN</text>
</g>
<!-- tlg0093_tlg004.S183406 -->
<g id="node6" class="node">
<title>tlg0093_tlg004.S183406</title>
<ellipse fill="#ecd4bb" stroke="#b39c84" cx="918.35" cy="-1615.86" rx="103.73" ry="50.12"/>
<text text-anchor="start" x="886.48" y="-1637.56" font-family="Times New Roman,serif" font-weight="bold" font-size="14.00">SUPPORT</text>
<text text-anchor="start" x="848.6" y="-1623.56" font-family="Times New Roman,serif" font-size="14.00"> &#160;&#160;&#160;&#160;&#160;&#160;&#160;&#160;Theophrastus &#160;&#160;&#160;&#160;&#160;&#160;&#160;&#160;</text>
<text text-anchor="start" x="911.6" y="-1609.56" font-family="Times New Roman,serif" font-size="14.00">55</text>
<text text-anchor="start" x="879.73" y="-1595.56" font-family="Times New Roman,serif" font-style="italic" font-size="14.00">form: analogy</text>
<text text-anchor="start" x="853.48" y="-1583.46" font-family="Times New Roman,serif" font-size="12.00">&quot;τὸν μὲν κύανον ... καὶ ἔτι&quot;</text>
</g>
<!-- tlg0093_tlg004.S183406_func -->
<g id="node7" class="node">
<title>tlg0093_tlg004.S183406_func</title>
<ellipse fill="#ecd4bb" stroke="#b39c84" cx="918.35" cy="-1525.74" rx="71.69" ry="18"/>
<text text-anchor="middle" x="918.35" y="-1522.04" font-family="Times New Roman,serif" font-size="11.00">CONTEXTUALIZES</text>
</g>
<!-- tlg0093_tlg004.T170246 -->
<g id="node8" class="node">
<title>tlg0093_tlg004.T170246</title>
<path fill="#f0faf0" stroke="#82b366" d="M1047.95,-1485.74C1047.95,-1485.74 788.75,-1485.74 788.75,-1485.74 782.75,-1485.74 776.75,-1479.74 776.75,-1473.74 776.75,-1473.74 776.75,-1415.34 776.75,-1415.34 776.75,-1409.34 782.75,-1403.34 788.75,-1403.34 788.75,-1403.34 1047.95,-1403.34 1047.95,-1403.34 1053.95,-1403.34 1059.95,-1409.34 1059.95,-1415.34 1059.95,-1415.34 1059.95,-1473.74 1059.95,-1473.74 1059.95,-1479.74 1053.95,-1485.74 1047.95,-1485.74"/>
<text text-anchor="start" x="893.6" y="-1466.24" font-family="Times New Roman,serif" font-weight="bold" font-size="14.00">THESIS</text>
<text text-anchor="start" x="848.6" y="-1452.24" font-family="Times New Roman,serif" font-size="14.00"> &#160;&#160;&#160;&#160;&#160;&#160;&#160;&#160;Theophrastus &#160;&#160;&#160;&#160;&#160;&#160;&#160;&#160;</text>
<text text-anchor="start" x="911.6" y="-1438.24" font-family="Times New Roman,serif" font-size="14.00">55</text>
<text text-anchor="start" x="798.35" y="-1424.24" font-family="Times New Roman,serif" font-style="italic" font-size="14.00">Lead white comes about by technical means</text>
<text text-anchor="start" x="846.35" y="-1412.14" font-family="Times New Roman,serif" font-size="12.00">&quot;τέχνῃ γίνεται ... τὸ ψιμύθιον&quot;</text>
</g>
<!-- tlg0093_tlg004.S183406_employed -->
<g id="node9" class="node">
<title>tlg0093_tlg004.S183406_employed</title>
<ellipse fill="#ffe6cc" stroke="#d79c02" cx="918.35" cy="-1705.98" rx="57.2" ry="18"/>
<text text-anchor="middle" x="918.35" y="-1702.28" font-family="Times New Roman,serif" font-size="11.00">EMPLOYED IN</text>
</g>
<!-- tlg0093_tlg004.S150529 -->
<g id="node10" class="node">
<title>tlg0093_tlg004.S150529</title>
<ellipse fill="#f6ede6" stroke="#b3a89a" stroke-dasharray="5,2" cx="796.35" cy="-1273.22" rx="131.84" ry="50.12"/>
<text text-anchor="start" x="747.23" y="-1294.92" font-family="Times New Roman,serif" font-weight="bold" font-size="14.00">impl. SUPPORT</text>
<text text-anchor="start" x="726.6" y="-1280.92" font-family="Times New Roman,serif" font-size="14.00"> &#160;&#160;&#160;&#160;&#160;&#160;&#160;&#160;Theophrastus &#160;&#160;&#160;&#160;&#160;&#160;&#160;&#160;</text>
<text text-anchor="start" x="789.6" y="-1266.92" font-family="Times New Roman,serif" font-size="14.00">55</text>
<text text-anchor="start" x="740.48" y="-1252.92" font-family="Times New Roman,serif" font-style="italic" font-size="14.00">form: generalization</text>
<text text-anchor="start" x="706.73" y="-1240.82" font-family="Times New Roman,serif" font-size="12.00">&quot;τέχνῃ γίνεται ... τὸ ψιμύθιον. ... γὰρ&quot;</text>
</g>
<!-- tlg0093_tlg004.S150529_func -->
<g id="node11" class="node">
<title>tlg0093_tlg004.S150529_func</title>
<ellipse fill="#f6ede6" stroke="#b3a89a" stroke-dasharray="5,2" cx="712.35" cy="-1183.1" rx="71.69" ry="18"/>
<text text-anchor="middle" x="712.35" y="-1179.4" font-family="Times New Roman,serif" font-size="11.00">CONTEXTUALIZES</text>
</g>
<!-- tlg0093_tlg004.T151115 -->
<g id="node12" class="node">
<title>tlg0093_tlg004.T151115</title>
<path fill="#f0faf0" stroke="#82b366" d="M824.33,-1143.1C824.33,-1143.1 516.38,-1143.1 516.38,-1143.1 510.38,-1143.1 504.38,-1137.1 504.38,-1131.1 504.38,-1131.1 504.38,-960.7 504.38,-960.7 504.38,-954.7 510.38,-948.7 516.38,-948.7 516.38,-948.7 824.33,-948.7 824.33,-948.7 830.33,-948.7 836.33,-954.7 836.33,-960.7 836.33,-960.7 836.33,-1131.1 836.33,-1131.1 836.33,-1137.1 830.33,-1143.1 824.33,-1143.1"/>
<text text-anchor="start" x="645.6" y="-1123.6" font-family="Times New Roman,serif" font-weight="bold" font-size="14.00">THESIS</text>
<text text-anchor="start" x="600.6" y="-1109.6" font-family="Times New Roman,serif" font-size="14.00"> &#160;&#160;&#160;&#160;&#160;&#160;&#160;&#160;Theophrastus &#160;&#160;&#160;&#160;&#160;&#160;&#160;&#160;</text>
<text text-anchor="start" x="663.6" y="-1095.6" font-family="Times New Roman,serif" font-size="14.00">55</text>
<text text-anchor="start" x="542.1" y="-1081.6" font-family="Times New Roman,serif" font-style="italic" font-size="14.00">.Lead the size of a brick is placed over vinegar</text>
<text text-anchor="start" x="543.98" y="-1067.6" font-family="Times New Roman,serif" font-style="italic" font-size="14.00">in (closed) jars, .They wait for lead to acquire</text>
<text text-anchor="start" x="542.48" y="-1053.6" font-family="Times New Roman,serif" font-style="italic" font-size="14.00">thickness{, which happens in a maximum of 10</text>
<text text-anchor="start" x="529.73" y="-1039.6" font-family="Times New Roman,serif" font-style="italic" font-size="14.00">days}, .They open the jars, .They scrape away from</text>
<text text-anchor="start" x="531.6" y="-1025.6" font-family="Times New Roman,serif" font-style="italic" font-size="14.00">the lead something {resembling a mold}, repeating</text>
<text text-anchor="start" x="534.6" y="-1011.6" font-family="Times New Roman,serif" font-style="italic" font-size="14.00">this until they have consumed it completely, .They</text>
<text text-anchor="start" x="525.98" y="-997.6" font-family="Times New Roman,serif" font-style="italic" font-size="14.00">rub what has been scraped away in a grinding&#45;bowl,</text>
<text text-anchor="start" x="535.73" y="-983.6" font-family="Times New Roman,serif" font-style="italic" font-size="14.00">.They always filter off what is being rubbed, .The</text>
<text text-anchor="start" x="590.48" y="-969.6" font-family="Times New Roman,serif" font-style="italic" font-size="14.00">final precipitate is lead white</text>
<text text-anchor="start" x="578.1" y="-957.5" font-family="Times New Roman,serif" font-size="12.00">&quot;τίθεται γὰρ μόλυβδος ... τὸ ψιμύθιον&quot;</text>
</g>
<!-- tlg0093_tlg004.S150529_employed -->
<g id="node13" class="node">
<title>tlg0093_tlg004.S150529_employed</title>
<ellipse fill="#ffe6cc" stroke="#d79c02" cx="876.35" cy="-1363.34" rx="57.2" ry="18"/>
<text text-anchor="middle" x="876.35" y="-1359.64" font-family="Times New Roman,serif" font-size="11.00">EMPLOYED IN</text>
</g>
<!-- tlg0093_tlg004.T151115_to_tlg0093_tlg004.T180430_1 -->
<g id="node14" class="node">
<title>tlg0093_tlg004.T151115_to_tlg0093_tlg004.T180430_1</title>
<path fill="#f0faf0" stroke="#82b366" d="M585.69,-909.18C585.69,-909.18 544.16,-923.08 544.16,-923.08 538.76,-924.89 527.94,-924.89 522.54,-923.08 522.54,-923.08 481.01,-909.18 481.01,-909.18 475.61,-907.37 470.21,-899.86 470.22,-894.16 470.22,-894.16 470.24,-882.76 470.24,-882.76 470.25,-877.06 475.96,-871.36 481.66,-871.36 481.66,-871.36 585.04,-871.36 585.04,-871.36 590.74,-871.36 596.45,-877.06 596.46,-882.76 596.46,-882.76 596.48,-894.16 596.48,-894.16 596.49,-899.86 591.09,-907.37 585.69,-909.18"/>
<text text-anchor="start" x="505.23" y="-899.16" font-family="Times New Roman,serif" font-size="11.00">by inclusion,</text>
<text text-anchor="start" x="510.48" y="-885.66" font-family="Times New Roman,serif" font-size="11.00">ENTAILS</text>
</g>
<!-- tlg0093_tlg004.T151115_analogy_to_tlg0093_tlg004.T154708_1 -->
<g id="node15" class="node">
<title>tlg0093_tlg004.T151115_analogy_to_tlg0093_tlg004.T154708_1</title>
<path fill="#ffffd0" stroke="#d4d400" d="M223.94,-922.41C223.94,-922.41 154.26,-899.81 154.26,-899.81 148.56,-897.96 148.56,-894.26 154.26,-892.41 154.26,-892.41 223.94,-869.81 223.94,-869.81 229.64,-867.96 241.06,-867.96 246.76,-869.81 246.76,-869.81 316.44,-892.41 316.44,-892.41 322.14,-894.26 322.14,-897.96 316.44,-899.81 316.44,-899.81 246.76,-922.41 246.76,-922.41 241.06,-924.26 229.64,-924.26 223.94,-922.41"/>
<text text-anchor="start" x="212.85" y="-897.66" font-family="Times New Roman,serif" font-style="italic" font-size="11.00">as source</text>
<text text-anchor="start" x="254.85" y="-897.66" font-family="Times New Roman,serif" font-size="11.00">,</text>
<text text-anchor="start" x="197.1" y="-886.66" font-family="Times New Roman,serif" font-size="11.00">COMPARED IN</text>
</g>
<!-- tlg0093_tlg004.q151115001 -->
<g id="node16" class="node">
<title>tlg0093_tlg004.q151115001</title>
<path fill="#f0faf0" stroke="#82b366" d="M762.48,-616.12C762.48,-616.12 630.23,-616.12 630.23,-616.12 624.23,-616.12 618.23,-610.12 618.23,-604.12 618.23,-604.12 618.23,-564.12 618.23,-564.12 618.23,-558.12 624.23,-552.12 630.23,-552.12 630.23,-552.12 762.48,-552.12 762.48,-552.12 768.48,-552.12 774.48,-558.12 774.48,-564.12 774.48,-564.12 774.48,-604.12 774.48,-604.12 774.48,-610.12 768.48,-616.12 762.48,-616.12"/>
<text text-anchor="start" x="692.98" y="-599.82" font-family="Times New Roman,serif" font-weight="bold" font-size="14.00">1</text>
<text text-anchor="start" x="626.23" y="-585.82" font-family="Times New Roman,serif" font-style="italic" font-size="14.00">Lead the size of a brick is</text>
<text text-anchor="start" x="634.85" y="-571.82" font-family="Times New Roman,serif" font-style="italic" font-size="14.00">placed over vinegar in</text>
<text text-anchor="start" x="662.23" y="-557.82" font-family="Times New Roman,serif" font-style="italic" font-size="14.00">(closed) jars</text>
</g>
<!-- tlg0093_tlg004.q151115002 -->
<g id="node17" class="node">
<title>tlg0093_tlg004.q151115002</title>
<path fill="#f0faf0" stroke="#82b366" d="M777.98,-454C777.98,-454 624.73,-454 624.73,-454 618.73,-454 612.73,-448 612.73,-442 612.73,-442 612.73,-402 612.73,-402 612.73,-396 618.73,-390 624.73,-390 624.73,-390 777.98,-390 777.98,-390 783.98,-390 789.98,-396 789.98,-402 789.98,-402 789.98,-442 789.98,-442 789.98,-448 783.98,-454 777.98,-454"/>
<text text-anchor="start" x="697.98" y="-437.7" font-family="Times New Roman,serif" font-weight="bold" font-size="14.00">2</text>
<text text-anchor="start" x="621.85" y="-423.7" font-family="Times New Roman,serif" font-style="italic" font-size="14.00">They wait for lead to acquire</text>
<text text-anchor="start" x="620.73" y="-409.7" font-family="Times New Roman,serif" font-style="italic" font-size="14.00">thickness {, which happens in</text>
<text text-anchor="start" x="637.23" y="-395.7" font-family="Times New Roman,serif" font-style="italic" font-size="14.00">a maximum of 10 days}</text>
</g>
<!-- tlg0093_tlg004.q151115003 -->
<g id="node18" class="node">
<title>tlg0093_tlg004.q151115003</title>
<path fill="#f0faf0" stroke="#82b366" d="M750.98,-368C750.98,-368 657.73,-368 657.73,-368 651.73,-368 645.73,-362 645.73,-356 645.73,-356 645.73,-344 645.73,-344 645.73,-338 651.73,-332 657.73,-332 657.73,-332 750.98,-332 750.98,-332 756.98,-332 762.98,-338 762.98,-344 762.98,-344 762.98,-356 762.98,-356 762.98,-362 756.98,-368 750.98,-368"/>
<text text-anchor="start" x="700.98" y="-351.7" font-family="Times New Roman,serif" font-weight="bold" font-size="14.00">3</text>
<text text-anchor="start" x="653.73" y="-337.7" font-family="Times New Roman,serif" font-style="italic" font-size="14.00">They open the jars</text>
</g>
<!-- tlg0093_tlg004.q151115004 -->
<g id="node19" class="node">
<title>tlg0093_tlg004.q151115004</title>
<path fill="#f0faf0" stroke="#82b366" d="M791.73,-310C791.73,-310 624.98,-310 624.98,-310 618.98,-310 612.98,-304 612.98,-298 612.98,-298 612.98,-244 612.98,-244 612.98,-238 618.98,-232 624.98,-232 624.98,-232 791.73,-232 791.73,-232 797.73,-232 803.73,-238 803.73,-244 803.73,-244 803.73,-298 803.73,-298 803.73,-304 797.73,-310 791.73,-310"/>
<text text-anchor="start" x="704.98" y="-293.7" font-family="Times New Roman,serif" font-weight="bold" font-size="14.00">4</text>
<text text-anchor="start" x="620.98" y="-279.7" font-family="Times New Roman,serif" font-style="italic" font-size="14.00">They scrape away from the lead</text>
<text text-anchor="start" x="620.98" y="-265.7" font-family="Times New Roman,serif" font-style="italic" font-size="14.00">something {resembling a mold},</text>
<text text-anchor="start" x="628.85" y="-251.7" font-family="Times New Roman,serif" font-style="italic" font-size="14.00">repeating this until they have</text>
<text text-anchor="start" x="644.6" y="-237.7" font-family="Times New Roman,serif" font-style="italic" font-size="14.00">consumed it completely</text>
</g>
<!-- tlg0093_tlg004.q151115005 -->
<g id="node20" class="node">
<title>tlg0093_tlg004.q151115005</title>
<path fill="#f0faf0" stroke="#82b366" d="M793.85,-210C793.85,-210 624.85,-210 624.85,-210 618.85,-210 612.85,-204 612.85,-198 612.85,-198 612.85,-172 612.85,-172 612.85,-166 618.85,-160 624.85,-160 624.85,-160 793.85,-160 793.85,-160 799.85,-160 805.85,-166 805.85,-172 805.85,-172 805.85,-198 805.85,-198 805.85,-204 799.85,-210 793.85,-210"/>
<text text-anchor="start" x="705.98" y="-193.7" font-family="Times New Roman,serif" font-weight="bold" font-size="14.00">5</text>
<text text-anchor="start" x="620.85" y="-179.7" font-family="Times New Roman,serif" font-style="italic" font-size="14.00">They rub what has been scraped</text>
<text text-anchor="start" x="642.23" y="-165.7" font-family="Times New Roman,serif" font-style="italic" font-size="14.00">away in a grinding&#45;bowl</text>
</g>
<!-- tlg0093_tlg004.q151115006 -->
<g id="node21" class="node">
<title>tlg0093_tlg004.q151115006</title>
<path fill="#f0faf0" stroke="#82b366" d="M784.48,-138C784.48,-138 634.23,-138 634.23,-138 628.23,-138 622.23,-132 622.23,-126 622.23,-126 622.23,-100 622.23,-100 622.23,-94 628.23,-88 634.23,-88 634.23,-88 784.48,-88 784.48,-88 790.48,-88 796.48,-94 796.48,-100 796.48,-100 796.48,-126 796.48,-126 796.48,-132 790.48,-138 784.48,-138"/>
<text text-anchor="start" x="705.98" y="-121.7" font-family="Times New Roman,serif" font-weight="bold" font-size="14.00">6</text>
<text text-anchor="start" x="630.23" y="-107.7" font-family="Times New Roman,serif" font-style="italic" font-size="14.00">They always filter off what is</text>
<text text-anchor="start" x="673.35" y="-93.7" font-family="Times New Roman,serif" font-style="italic" font-size="14.00">being rubbed</text>
</g>
<!-- tlg0093_tlg004.q151115007 -->
<g id="node22" class="node">
<title>tlg0093_tlg004.q151115007</title>
<path fill="#f0faf0" stroke="#82b366" d="M780.73,-66C780.73,-66 637.98,-66 637.98,-66 631.98,-66 625.98,-60 625.98,-54 625.98,-54 625.98,-28 625.98,-28 625.98,-22 631.98,-16 637.98,-16 637.98,-16 780.73,-16 780.73,-16 786.73,-16 792.73,-22 792.73,-28 792.73,-28 792.73,-54 792.73,-54 792.73,-60 786.73,-66 780.73,-66"/>
<text text-anchor="start" x="705.98" y="-49.7" font-family="Times New Roman,serif" font-weight="bold" font-size="14.00">7</text>
<text text-anchor="start" x="633.98" y="-35.7" font-family="Times New Roman,serif" font-style="italic" font-size="14.00">The final precipitate is lead</text>
<text text-anchor="start" x="694.73" y="-21.7" font-family="Times New Roman,serif" font-style="italic" font-size="14.00">white</text>
</g>
<!-- tlg0093_tlg004.T180430 -->
<g id="node23" class="node">
<title>tlg0093_tlg004.T180430</title>
<path fill="#f0faf0" stroke="#82b366" d="M630.45,-825.02C630.45,-825.02 344.25,-825.02 344.25,-825.02 338.25,-825.02 332.25,-819.02 332.25,-813.02 332.25,-813.02 332.25,-726.62 332.25,-726.62 332.25,-720.62 338.25,-714.62 344.25,-714.62 344.25,-714.62 630.45,-714.62 630.45,-714.62 636.45,-714.62 642.45,-720.62 642.45,-726.62 642.45,-726.62 642.45,-813.02 642.45,-813.02 642.45,-819.02 636.45,-825.02 630.45,-825.02"/>
<text text-anchor="start" x="462.6" y="-805.52" font-family="Times New Roman,serif" font-weight="bold" font-size="14.00">THESIS</text>
<text text-anchor="start" x="417.6" y="-791.52" font-family="Times New Roman,serif" font-size="14.00"> &#160;&#160;&#160;&#160;&#160;&#160;&#160;&#160;Theophrastus &#160;&#160;&#160;&#160;&#160;&#160;&#160;&#160;</text>
<text text-anchor="start" x="480.6" y="-777.52" font-family="Times New Roman,serif" font-size="14.00">55</text>
<text text-anchor="start" x="360.23" y="-763.52" font-family="Times New Roman,serif" font-style="italic" font-size="14.00">Lead the size of a brick placed over vinegar in</text>
<text text-anchor="start" x="353.85" y="-749.52" font-family="Times New Roman,serif" font-style="italic" font-size="14.00">(closed) jars acquires thickness in a maximum of</text>
<text text-anchor="start" x="466.35" y="-735.52" font-family="Times New Roman,serif" font-style="italic" font-size="14.00">10 days</text>
<text text-anchor="start" x="391.73" y="-723.42" font-family="Times New Roman,serif" font-size="12.00">&quot;τίθεται γὰρ μόλυβδος ... ἡμέραις δέκα&quot;</text>
</g>
<!-- tlg0093_tlg004.S181431 -->
<g id="node24" class="node">
<title>tlg0093_tlg004.S181431</title>
<ellipse fill="#edffc4" stroke="#927b89" cx="457.35" cy="-584.12" rx="139.26" ry="50.12"/>
<text text-anchor="start" x="425.48" y="-605.82" font-family="Times New Roman,serif" font-weight="bold" font-size="14.00">SUPPORT</text>
<text text-anchor="start" x="387.6" y="-591.82" font-family="Times New Roman,serif" font-size="14.00"> &#160;&#160;&#160;&#160;&#160;&#160;&#160;&#160;Theophrastus &#160;&#160;&#160;&#160;&#160;&#160;&#160;&#160;</text>
<text text-anchor="start" x="450.6" y="-577.82" font-family="Times New Roman,serif" font-size="14.00">56</text>
<text text-anchor="start" x="405.98" y="-563.82" font-family="Times New Roman,serif" font-style="italic" font-size="14.00">form: specification</text>
<text text-anchor="start" x="362.48" y="-551.72" font-family="Times New Roman,serif" font-size="12.00">&quot;λαμβάνει δὲ μάλιστα ... ἡμέραις δέκα&quot;</text>
</g>
<!-- tlg0093_tlg004.S181431_func -->
<g id="node25" class="node">
<title>tlg0093_tlg004.S181431_func</title>
<ellipse fill="#edffc4" stroke="#927b89" cx="504.35" cy="-494" rx="43.64" ry="18"/>
<text text-anchor="middle" x="504.35" y="-490.3" font-family="Times New Roman,serif" font-size="11.00">EXPLAINS</text>
</g>
<!-- tlg0093_tlg004.S181431_employed -->
<g id="node26" class="node">
<title>tlg0093_tlg004.S181431_employed</title>
<ellipse fill="#ffe6cc" stroke="#d79c02" cx="472.35" cy="-674.62" rx="57.2" ry="18"/>
<text text-anchor="middle" x="472.35" y="-670.92" font-family="Times New Roman,serif" font-size="11.00">EMPLOYED IN</text>
</g>
<!-- tlg0093_tlg004.S153946 -->
<g id="node27" class="node">
<title>tlg0093_tlg004.S153946</title>
<ellipse fill="#edffc4" stroke="#927b89" cx="834.35" cy="-769.82" rx="135.55" ry="50.12"/>
<text text-anchor="start" x="802.48" y="-791.52" font-family="Times New Roman,serif" font-weight="bold" font-size="14.00">SUPPORT</text>
<text text-anchor="start" x="764.6" y="-777.52" font-family="Times New Roman,serif" font-size="14.00"> &#160;&#160;&#160;&#160;&#160;&#160;&#160;&#160;Theophrastus &#160;&#160;&#160;&#160;&#160;&#160;&#160;&#160;</text>
<text text-anchor="start" x="827.6" y="-763.52" font-family="Times New Roman,serif" font-size="14.00">55</text>
<text text-anchor="start" x="757.85" y="-749.52" font-family="Times New Roman,serif" font-style="italic" font-size="14.00">form: particular&#45;illustration</text>
<text text-anchor="start" x="742.1" y="-737.42" font-family="Times New Roman,serif" font-size="12.00">&quot;τίθεται γὰρ μόλυβδος ... τὸ ψιμύθιον&quot;</text>
</g>
<!-- tlg0093_tlg004.S153946_func -->
<g id="node28" class="node">
<title>tlg0093_tlg004.S153946_func</title>
<ellipse fill="#edffc4" stroke="#927b89" cx="916.35" cy="-674.62" rx="43.64" ry="18"/>
<text text-anchor="middle" x="916.35" y="-670.92" font-family="Times New Roman,serif" font-size="11.00">EXPLAINS</text>
</g>
<!-- tlg0093_tlg004.S153946_employed -->
<g id="node29" class="node">
<title>tlg0093_tlg004.S153946_employed</title>
<ellipse fill="#ffe6cc" stroke="#d79c02" cx="795.35" cy="-896.11" rx="57.2" ry="18"/>
<text text-anchor="middle" x="795.35" y="-892.41" font-family="Times New Roman,serif" font-size="11.00">EMPLOYED IN</text>
</g>
<!-- tlg0093_tlg004.T154708 -->
<g id="node30" class="node">
<title>tlg0093_tlg004.T154708</title>
<path fill="#f0faf0" stroke="#82b366" d="M302.7,-818.02C302.7,-818.02 12,-818.02 12,-818.02 6,-818.02 0,-812.02 0,-806.02 0,-806.02 0,-733.62 0,-733.62 0,-727.62 6,-721.62 12,-721.62 12,-721.62 302.7,-721.62 302.7,-721.62 308.7,-721.62 314.7,-727.62 314.7,-733.62 314.7,-733.62 314.7,-806.02 314.7,-806.02 314.7,-812.02 308.7,-818.02 302.7,-818.02"/>
<text text-anchor="start" x="132.6" y="-798.52" font-family="Times New Roman,serif" font-weight="bold" font-size="14.00">THESIS</text>
<text text-anchor="start" x="87.6" y="-784.52" font-family="Times New Roman,serif" font-size="14.00"> &#160;&#160;&#160;&#160;&#160;&#160;&#160;&#160;Theophrastus &#160;&#160;&#160;&#160;&#160;&#160;&#160;&#160;</text>
<text text-anchor="start" x="150.6" y="-770.52" font-family="Times New Roman,serif" font-size="14.00">55</text>
<text text-anchor="start" x="21.6" y="-756.52" font-family="Times New Roman,serif" font-style="italic" font-size="14.00">Copper rust comes about by a (technical) process</text>
<text text-anchor="start" x="83.48" y="-742.52" font-family="Times New Roman,serif" font-style="italic" font-size="14.00">very similar to lead white&#39;s</text>
<text text-anchor="start" x="69.23" y="-730.42" font-family="Times New Roman,serif" font-size="12.00">&quot;τίθεται γὰρ μόλυβδος ... ἰὸς γίνεται&quot;</text>
</g>
<!-- tlg0093_tlg004.S160706 -->
<g id="node31" class="node">
<title>tlg0093_tlg004.S160706</title>
<ellipse fill="#f6ede6" stroke="#b3a89a" stroke-dasharray="5,2" cx="157.35" cy="-584.12" rx="119.11" ry="50.12"/>
<text text-anchor="start" x="108.23" y="-605.82" font-family="Times New Roman,serif" font-weight="bold" font-size="14.00">impl. SUPPORT</text>
<text text-anchor="start" x="87.6" y="-591.82" font-family="Times New Roman,serif" font-size="14.00"> &#160;&#160;&#160;&#160;&#160;&#160;&#160;&#160;Theophrastus &#160;&#160;&#160;&#160;&#160;&#160;&#160;&#160;</text>
<text text-anchor="start" x="150.6" y="-577.82" font-family="Times New Roman,serif" font-size="14.00">56</text>
<text text-anchor="start" x="101.48" y="-563.82" font-family="Times New Roman,serif" font-style="italic" font-size="14.00">form: generalization</text>
<text text-anchor="start" x="76.73" y="-551.72" font-family="Times New Roman,serif" font-size="12.00">&quot;παραπλησίως δὲ καὶ ... γίνεται ·&quot;</text>
</g>
<!-- tlg0093_tlg004.S160706_to_omitted_TARGET_THESIS_1 -->
<g id="node32" class="node">
<title>tlg0093_tlg004.S160706_to_omitted_TARGET_THESIS_1</title>
<path fill="#f0faf0" stroke="#82b366" d="M173.6,-440C173.6,-440 141.1,-440 141.1,-440 135.1,-440 129.1,-434 129.1,-428 129.1,-428 129.1,-416 129.1,-416 129.1,-410 135.1,-404 141.1,-404 141.1,-404 173.6,-404 173.6,-404 179.6,-404 185.6,-410 185.6,-416 185.6,-416 185.6,-428 185.6,-428 185.6,-434 179.6,-440 173.6,-440"/>
<text text-anchor="start" x="137.48" y="-423.55" font-family="Times New Roman,serif" font-weight="bold" font-size="11.00">THESIS</text>
<text text-anchor="start" x="137.1" y="-412.55" font-family="Times New Roman,serif" font-style="italic" font-size="11.00">(omitted)</text>
</g>
<!-- tlg0093_tlg004.S160706_func -->
<g id="node33" class="node">
<title>tlg0093_tlg004.S160706_func</title>
<ellipse fill="#f6ede6" stroke="#b3a89a" stroke-dasharray="5,2" cx="157.35" cy="-494" rx="71.69" ry="18"/>
<text text-anchor="middle" x="157.35" y="-490.3" font-family="Times New Roman,serif" font-size="11.00">CONTEXTUALIZES</text>
</g>
<!-- tlg0093_tlg004.S160706_employed -->
<g id="node34" class="node">
<title>tlg0093_tlg004.S160706_employed</title>
<ellipse fill="#ffe6cc" stroke="#d79c02" cx="157.35" cy="-674.62" rx="57.2" ry="18"/>
<text text-anchor="middle" x="157.35" y="-670.92" font-family="Times New Roman,serif" font-size="11.00">EMPLOYED IN</text>
</g>
</g>
</svg>
