<?xml version="1.0" encoding="UTF-8" standalone="no"?>
<!DOCTYPE svg PUBLIC "-//W3C//DTD SVG 1.1//EN"
 "http://www.w3.org/Graphics/SVG/1.1/DTD/svg11.dtd">
<!-- Generated by graphviz version 12.2.1 (20241206.2353)
 -->
<!-- Title: G Pages: 1 -->
<svg width="1173pt" height="2351pt"
 viewBox="0.00 0.00 1173.06 2351.48" xmlns="http://www.w3.org/2000/svg" xmlns:xlink="http://www.w3.org/1999/xlink">
<g id="graph0" class="graph" transform="scale(1 1) rotate(0) translate(4 2347.48)">
<title>G</title>
<polygon fill="white" stroke="none" points="-4,4 -4,-2347.48 1169.06,-2347.48 1169.06,4 -4,4"/>
<polygon fill="none" stroke="black" points="8,-2312.98 8,-2339.48 96,-2339.48 96,-2312.98 8,-2312.98"/>
<text text-anchor="start" x="13" y="-2321.18" font-family="Times New Roman,serif" font-size="14.00">XML File:</text>
<polygon fill="none" stroke="black" points="96,-2312.98 96,-2339.48 494.5,-2339.48 494.5,-2312.98 96,-2312.98"/>
<text text-anchor="start" x="101" y="-2321.18" font-family="Times New Roman,serif" font-size="14.00">ancient&#45;lead&#45;white_JOHD.xml</text>
<polygon fill="none" stroke="black" points="8,-2286.48 8,-2312.98 96,-2312.98 96,-2286.48 8,-2286.48"/>
<text text-anchor="start" x="13" y="-2294.68" font-family="Times New Roman,serif" font-size="14.00">Sources:</text>
<polygon fill="none" stroke="black" points="96,-2286.48 96,-2312.98 494.5,-2312.98 494.5,-2286.48 96,-2286.48"/>
<text text-anchor="start" x="101" y="-2294.68" font-family="Times New Roman,serif" font-size="14.00">tlg0656_tlg001</text>
<polygon fill="none" stroke="black" points="8,-2259.98 8,-2286.48 96,-2286.48 96,-2259.98 8,-2259.98"/>
<text text-anchor="start" x="13" y="-2268.18" font-family="Times New Roman,serif" font-size="14.00">Engine:</text>
<polygon fill="none" stroke="black" points="96,-2259.98 96,-2286.48 494.5,-2286.48 494.5,-2259.98 96,-2259.98"/>
<text text-anchor="start" x="101" y="-2268.18" font-family="Times New Roman,serif" font-size="14.00">neato</text>
<polygon fill="none" stroke="black" points="8,-2183.98 8,-2259.98 96,-2259.98 96,-2183.98 8,-2183.98"/>
<text text-anchor="start" x="13" y="-2241.68" font-family="Times New Roman,serif" font-size="14.00">Active Filters:</text>
<polygon fill="none" stroke="black" points="96,-2183.98 96,-2259.98 494.5,-2259.98 494.5,-2183.98 96,-2183.98"/>
<text text-anchor="start" x="206.75" y="-2241.68" font-family="Times New Roman,serif" font-size="14.00">(d) Remove &#39;Extrinsic&#39; Elements</text>
<text text-anchor="start" x="252.88" y="-2225.18" font-family="Times New Roman,serif" font-size="14.00">Custom Filters:</text>
<text text-anchor="start" x="101" y="-2208.68" font-family="Times New Roman,serif" font-size="14.00">    • Prop tlg0656_tlg001.P213927 → Theses: tlg0656_tlg001.T213927</text>
<text text-anchor="start" x="184.25" y="-2192.18" font-family="Times New Roman,serif" font-size="14.00">• Thesis Focus: tlg0656_tlg001.T213927</text>
<polygon fill="none" stroke="black" points="8,-2008.98 8,-2183.98 96,-2183.98 96,-2008.98 8,-2008.98"/>
<text text-anchor="start" x="13" y="-2165.68" font-family="Times New Roman,serif" font-size="14.00">Parameters:</text>
<polygon fill="none" stroke="black" points="96,-2008.98 96,-2183.98 494.5,-2183.98 494.5,-2008.98 96,-2008.98"/>
<text text-anchor="start" x="122.75" y="-2165.68" font-family="Times New Roman,serif" font-size="14.00">overlap = prism</text>
<text text-anchor="start" x="123.88" y="-2149.18" font-family="Times New Roman,serif" font-size="14.00">splines = spline</text>
<text text-anchor="start" x="128" y="-2132.68" font-family="Times New Roman,serif" font-size="14.00">nodesep = 0.1</text>
<text text-anchor="start" x="101" y="-2116.18" font-family="Times New Roman,serif" font-size="14.00">outputorder = edgesfirst</text>
<text text-anchor="start" x="117.12" y="-2099.68" font-family="Times New Roman,serif" font-size="14.00">concentrate = true</text>
<text text-anchor="start" x="145.25" y="-2083.18" font-family="Times New Roman,serif" font-size="14.00">K = 0.3</text>
<text text-anchor="start" x="137.75" y="-2066.68" font-family="Times New Roman,serif" font-size="14.00">sep = 0.05</text>
<text text-anchor="start" x="127.62" y="-2050.18" font-family="Times New Roman,serif" font-size="14.00">maxiter = 800</text>
<text text-anchor="start" x="127.25" y="-2033.68" font-family="Times New Roman,serif" font-size="14.00">mode = major</text>
<text text-anchor="start" x="124.62" y="-2017.18" font-family="Times New Roman,serif" font-size="14.00">model = subset</text>
<!-- tlg0656_tlg001.T213927&#45;&gt;tlg0656_tlg001.q213927001 -->
<g id="edge28" class="edge">
<title>tlg0656_tlg001.T213927&#45;&gt;tlg0656_tlg001.q213927001</title>
<path fill="none" stroke="#a2b9a3" d="M622.02,-1749.91C634.41,-1741.17 648.32,-1730.2 665.08,-1716.46"/>
</g>
<!-- tlg0656_tlg001.q213927001&#45;&gt;tlg0656_tlg001.q213927002 -->
<g id="edge1" class="edge">
<title>tlg0656_tlg001.q213927001&#45;&gt;tlg0656_tlg001.q213927002</title>
<path fill="none" stroke="#a2b9a3" d="M753.31,-1651.99C759.28,-1644.24 765.18,-1633.89 773.15,-1618.55"/>
</g>
<!-- tlg0656_tlg001.q213927002&#45;&gt;tlg0656_tlg001.q213927003 -->
<g id="edge2" class="edge">
<title>tlg0656_tlg001.q213927002&#45;&gt;tlg0656_tlg001.q213927003</title>
<path fill="none" stroke="#a2b9a3" d="M776.17,-1567.82C756.59,-1517.11 749.02,-1496.35 703.58,-1369.79"/>
</g>
<!-- tlg0656_tlg001.q213927003&#45;&gt;tlg0656_tlg001.q213927004 -->
<g id="edge3" class="edge">
<title>tlg0656_tlg001.q213927003&#45;&gt;tlg0656_tlg001.q213927004</title>
<path fill="none" stroke="#a2b9a3" d="M662.52,-1291.3C655.28,-1278.51 647.28,-1261.78 633.2,-1231.23"/>
</g>
<!-- tlg0656_tlg001.q213927004&#45;&gt;tlg0656_tlg001.q213927005 -->
<g id="edge4" class="edge">
<title>tlg0656_tlg001.q213927004&#45;&gt;tlg0656_tlg001.q213927005</title>
<path fill="none" stroke="#a2b9a3" d="M602.59,-1166.8C592.56,-1144.34 586.77,-1123.57 570.85,-1060.41"/>
</g>
<!-- tlg0656_tlg001.q213927005&#45;&gt;tlg0656_tlg001.q213927006 -->
<g id="edge5" class="edge">
<title>tlg0656_tlg001.q213927005&#45;&gt;tlg0656_tlg001.q213927006</title>
<path fill="none" stroke="#a2b9a3" d="M540.42,-995.95C514.98,-958.94 504.69,-942.49 497.97,-924.89"/>
</g>
<!-- tlg0656_tlg001.q213927006&#45;&gt;tlg0656_tlg001.q213927007 -->
<g id="edge6" class="edge">
<title>tlg0656_tlg001.q213927006&#45;&gt;tlg0656_tlg001.q213927007</title>
<path fill="none" stroke="#a2b9a3" d="M484.99,-846.24C483.86,-816.17 484.71,-803.48 489.68,-788.97"/>
</g>
<!-- tlg0656_tlg001.q213927007&#45;&gt;tlg0656_tlg001.q213927008 -->
<g id="edge7" class="edge">
<title>tlg0656_tlg001.q213927007&#45;&gt;tlg0656_tlg001.q213927008</title>
<path fill="none" stroke="#a2b9a3" d="M512.09,-738.24C523.83,-713.12 530.76,-700.19 539.65,-690.63"/>
</g>
<!-- tlg0656_tlg001.q213927008&#45;&gt;tlg0656_tlg001.q213927009 -->
<g id="edge8" class="edge">
<title>tlg0656_tlg001.q213927008&#45;&gt;tlg0656_tlg001.q213927009</title>
<path fill="none" stroke="#a2b9a3" d="M613.27,-639.74C631.48,-627.75 645.06,-619.54 657.1,-614.12"/>
</g>
<!-- tlg0656_tlg001.q213927009&#45;&gt;tlg0656_tlg001.q213927010 -->
<g id="edge9" class="edge">
<title>tlg0656_tlg001.q213927009&#45;&gt;tlg0656_tlg001.q213927010</title>
<path fill="none" stroke="#a2b9a3" d="M764.42,-582.59C807.03,-509.47 815.96,-494.87 836.04,-468.25"/>
</g>
<!-- tlg0656_tlg001.q213927010&#45;&gt;tlg0656_tlg001.q213927011 -->
<g id="edge10" class="edge">
<title>tlg0656_tlg001.q213927010&#45;&gt;tlg0656_tlg001.q213927011</title>
<path fill="none" stroke="#a2b9a3" d="M862.75,-431.6C890.77,-391.25 906.87,-368.26 919.41,-351.78"/>
</g>
<!-- tlg0656_tlg001.q213927011&#45;&gt;tlg0656_tlg001.q213927012 -->
<g id="edge11" class="edge">
<title>tlg0656_tlg001.q213927011&#45;&gt;tlg0656_tlg001.q213927012</title>
<path fill="none" stroke="#a2b9a3" d="M972.13,-245.36C974.3,-220.27 974.82,-205.29 973.37,-192.31"/>
</g>
<!-- tlg0656_tlg001.q213927012&#45;&gt;tlg0656_tlg001.q213927013 -->
<g id="edge12" class="edge">
<title>tlg0656_tlg001.q213927012&#45;&gt;tlg0656_tlg001.q213927013</title>
<path fill="none" stroke="#a2b9a3" d="M968.6,-99.67C968.98,-97.03 969.32,-94.59 969.6,-92.32"/>
</g>
<!-- tlg0093_tlg004.P151115&#45;&gt;tlg0093_tlg004.P151115_to_tlg0656_tlg001.T213927_1 -->
<g id="edge27" class="edge">
<title>tlg0093_tlg004.P151115&#45;&gt;tlg0093_tlg004.P151115_to_tlg0656_tlg001.T213927_1</title>
<path fill="none" stroke="#9673a6" d="M218.47,-1510.2C218.58,-1512.92 218.78,-1515.53 219.07,-1518.09"/>
</g>
<!-- tlg0093_tlg004.P151115&#45;&gt;tlg0093_tlg004.q151116001 -->
<g id="edge26" class="edge">
<title>tlg0093_tlg004.P151115&#45;&gt;tlg0093_tlg004.q151116001</title>
<path fill="none" stroke="#9673a6" d="M397.33,-1328.63C412.59,-1317.75 430.23,-1304.86 451.18,-1289.43"/>
</g>
<!-- tlg0093_tlg004.P151115_to_tlg0656_tlg001.T213927_1&#45;&gt;tlg0656_tlg001.T213927 -->
<g id="edge29" class="edge">
<title>tlg0093_tlg004.P151115_to_tlg0656_tlg001.T213927_1&#45;&gt;tlg0656_tlg001.T213927</title>
<path fill="none" stroke="#9673a6" d="M262.85,-1619.89C276.35,-1643.18 287.67,-1661.96 298.12,-1677.45"/>
<polygon fill="#9673a6" stroke="#9673a6" points="296.02,-1678.72 302,-1683.09 300.05,-1675.94 296.02,-1678.72"/>
</g>
<!-- tlg0093_tlg004.q151116001&#45;&gt;tlg0656_tlg001.q213927001 -->
<g id="edge19" class="edge">
<title>tlg0093_tlg004.q151116001&#45;&gt;tlg0656_tlg001.q213927001</title>
<path fill="none" stroke="#9673a6" stroke-width="1.25" stroke-dasharray="1,5" d="M494.83,-1289.19C584.16,-1533.02 597.84,-1566.69 668.57,-1645.63"/>
<polygon fill="#9673a6" stroke="#9673a6" stroke-width="1.25" points="666.45,-1646.93 672.95,-1650.49 670.09,-1643.65 666.45,-1646.93"/>
<text text-anchor="start" x="536.93" y="-1543.74" font-family="bold" font-size="10.00" fill="#9673a6">extends,</text>
<text text-anchor="start" x="528.68" y="-1531.74" font-family="bold" font-size="10.00" fill="#9673a6">generalizes</text>
</g>
<!-- tlg0093_tlg004.q151116001&#45;&gt;tlg0656_tlg001.q213927003 -->
<g id="edge20" class="edge">
<title>tlg0093_tlg004.q151116001&#45;&gt;tlg0656_tlg001.q213927003</title>
<path fill="none" stroke="#9673a6" stroke-width="1.25" stroke-dasharray="1,5" d="M520.18,-1289.5C554.13,-1314.12 574.21,-1326.5 596.07,-1331.77"/>
<polygon fill="#9673a6" stroke="#9673a6" stroke-width="1.25" points="595.37,-1334.13 602.72,-1333.08 596.32,-1329.32 595.37,-1334.13"/>
<text text-anchor="start" x="510.94" y="-1332.41" font-family="bold" font-size="10.00" fill="#9673a6">extends,</text>
<text text-anchor="start" x="502.69" y="-1320.41" font-family="bold" font-size="10.00" fill="#9673a6">generalizes</text>
</g>
<!-- tlg0093_tlg004.q151116001&#45;&gt;tlg0656_tlg001.q213927004 -->
<g id="edge21" class="edge">
<title>tlg0093_tlg004.q151116001&#45;&gt;tlg0656_tlg001.q213927004</title>
<path fill="none" stroke="#9673a6" stroke-width="1.25" stroke-dasharray="1,5" d="M564.99,-1243.8C567.96,-1241.68 571.09,-1239.31 574.44,-1236.66"/>
<polygon fill="#9673a6" stroke="#9673a6" stroke-width="1.25" points="575.8,-1238.71 579.7,-1232.4 572.71,-1234.91 575.8,-1238.71"/>
<text text-anchor="start" x="581.45" y="-1252.14" font-family="bold" font-size="10.00" fill="#9673a6">extends,</text>
<text text-anchor="start" x="573.2" y="-1240.14" font-family="bold" font-size="10.00" fill="#9673a6">generalizes</text>
</g>
<!-- tlg0093_tlg004.q151116001&#45;&gt;tlg0093_tlg004.q151116002 -->
<g id="edge13" class="edge">
<title>tlg0093_tlg004.q151116001&#45;&gt;tlg0093_tlg004.q151116002</title>
<path fill="none" stroke="#9673a6" d="M565.12,-1248.3C630.26,-1231.89 653.26,-1208.11 728.4,-1114.15"/>
</g>
<!-- tlg0093_tlg004.q151116002&#45;&gt;tlg0656_tlg001.q213927005 -->
<g id="edge22" class="edge">
<title>tlg0093_tlg004.q151116002&#45;&gt;tlg0656_tlg001.q213927005</title>
<path fill="none" stroke="#9673a6" stroke-width="1.25" stroke-dasharray="1,5" d="M675.13,-1075C666.87,-1072.18 657.55,-1068.63 646.24,-1064.02"/>
<polygon fill="#9673a6" stroke="#9673a6" stroke-width="1.25" points="647.24,-1061.78 639.84,-1061.38 645.38,-1066.32 647.24,-1061.78"/>
<text text-anchor="start" x="626.77" y="-1070.73" font-family="bold" font-size="10.00" fill="#9673a6">alters</text>
</g>
<!-- tlg0093_tlg004.q151116002&#45;&gt;tlg0093_tlg004.q151116003 -->
<g id="edge14" class="edge">
<title>tlg0093_tlg004.q151116002&#45;&gt;tlg0093_tlg004.q151116003</title>
<path fill="none" stroke="#9673a6" d="M822.42,-1064.98C844.5,-1056.41 854.99,-1048.81 869,-1034.14"/>
</g>
<!-- tlg0093_tlg004.q151116003&#45;&gt;tlg0093_tlg004.q151116004 -->
<g id="edge15" class="edge">
<title>tlg0093_tlg004.q151116003&#45;&gt;tlg0093_tlg004.q151116004</title>
<path fill="none" stroke="#9673a6" d="M901.12,-997.55C919.28,-975.9 927.9,-964.16 932.18,-951.09"/>
</g>
<!-- tlg0093_tlg004.q151116004&#45;&gt;tlg0093_tlg004.q151116005 -->
<g id="edge16" class="edge">
<title>tlg0093_tlg004.q151116004&#45;&gt;tlg0093_tlg004.q151116005</title>
<path fill="none" stroke="#9673a6" d="M945.69,-858.25C953.04,-814.32 950.24,-799.46 931.33,-765.7"/>
</g>
<!-- tlg0093_tlg004.q151116005&#45;&gt;tlg0656_tlg001.q213927009 -->
<g id="edge23" class="edge">
<title>tlg0093_tlg004.q151116005&#45;&gt;tlg0656_tlg001.q213927009</title>
<path fill="none" stroke="#9673a6" stroke-width="1.25" stroke-dasharray="1,5" d="M902,-715.16C875.82,-670.39 862,-651.32 834.17,-637.02"/>
<polygon fill="#9673a6" stroke="#9673a6" stroke-width="1.25" points="835.44,-634.91 828.07,-634.1 833.33,-639.33 835.44,-634.91"/>
<text text-anchor="start" x="805.68" y="-679.13" font-family="bold" font-size="10.00" fill="#9673a6">generalizes,</text>
<text text-anchor="start" x="822.18" y="-667.13" font-family="bold" font-size="10.00" fill="#9673a6">alters</text>
</g>
<!-- tlg0093_tlg004.q151116005&#45;&gt;tlg0093_tlg004.q151116006 -->
<g id="edge17" class="edge">
<title>tlg0093_tlg004.q151116005&#45;&gt;tlg0093_tlg004.q151116006</title>
<path fill="none" stroke="#9673a6" d="M935.85,-714.83C986.42,-648.1 997.31,-632.45 1011.03,-601.91"/>
</g>
<!-- tlg0093_tlg004.q151116006&#45;&gt;tlg0656_tlg001.q213927010 -->
<g id="edge24" class="edge">
<title>tlg0093_tlg004.q151116006&#45;&gt;tlg0656_tlg001.q213927010</title>
<path fill="none" stroke="#9673a6" stroke-width="1.25" stroke-dasharray="1,5" d="M1006.13,-551.75C975.11,-502.65 960.66,-485.4 924.13,-471.49"/>
<polygon fill="#9673a6" stroke="#9673a6" stroke-width="1.25" points="925.18,-469.26 917.77,-469.2 923.53,-473.87 925.18,-469.26"/>
<text text-anchor="start" x="923.66" y="-500.89" font-family="bold" font-size="10.00" fill="#9673a6">matches</text>
</g>
<!-- tlg0093_tlg004.q151116006&#45;&gt;tlg0093_tlg004.q151116007 -->
<g id="edge18" class="edge">
<title>tlg0093_tlg004.q151116006&#45;&gt;tlg0093_tlg004.q151116007</title>
<path fill="none" stroke="#9673a6" d="M1034.95,-551.56C1065.96,-491.81 1072.89,-476.48 1077.78,-449.24"/>
</g>
<!-- tlg0093_tlg004.q151116007&#45;&gt;tlg0656_tlg001.q213927011 -->
<g id="edge25" class="edge">
<title>tlg0093_tlg004.q151116007&#45;&gt;tlg0656_tlg001.q213927011</title>
<path fill="none" stroke="#9673a6" stroke-width="1.25" stroke-dasharray="1,5" d="M1070.96,-398.41C1063.92,-382.04 1058.2,-369.55 1052.5,-359.55"/>
<polygon fill="#9673a6" stroke="#9673a6" stroke-width="1.25" points="1054.64,-358.35 1048.9,-353.65 1050.46,-360.9 1054.64,-358.35"/>
<text text-anchor="start" x="997.38" y="-389.3" font-family="bold" font-size="10.00" fill="#9673a6">generalizes,</text>
<text text-anchor="start" x="1006.01" y="-377.3" font-family="bold" font-size="10.00" fill="#9673a6">specifies</text>
</g>
<!-- tlg0656_tlg001.T213927 -->
<g id="node1" class="node">
<title>tlg0656_tlg001.T213927</title>
<path fill="#f0faf0" stroke="#82b366" d="M609.72,-2004.98C609.72,-2004.98 315.27,-2004.98 315.27,-2004.98 309.27,-2004.98 303.27,-1998.98 303.27,-1992.98 303.27,-1992.98 303.27,-1570.58 303.27,-1570.58 303.27,-1564.58 309.27,-1558.58 315.27,-1558.58 315.27,-1558.58 609.72,-1558.58 609.72,-1558.58 615.72,-1558.58 621.72,-1564.58 621.72,-1570.58 621.72,-1570.58 621.72,-1992.98 621.72,-1992.98 621.72,-1998.98 615.72,-2004.98 609.72,-2004.98"/>
<text text-anchor="start" x="437.74" y="-1985.48" font-family="Times New Roman,serif" font-weight="bold" font-size="14.00">THESIS</text>
<text text-anchor="start" x="384.87" y="-1971.48" font-family="Times New Roman,serif" font-size="14.00"> &#160;&#160;&#160;&#160;Dioscorides&#45;Pedanius &#160;&#160;&#160;&#160;</text>
<text text-anchor="start" x="423.12" y="-1957.48" font-family="Times New Roman,serif" font-size="14.00">5.88.1 (of </text>
<text text-anchor="start" x="480.87" y="-1957.48" font-family="Times New Roman,serif" font-style="italic" font-size="14.00">div</text>
<text text-anchor="start" x="497.37" y="-1957.48" font-family="Times New Roman,serif" font-size="14.00">)</text>
<text text-anchor="start" x="335.74" y="-1943.48" font-family="Times New Roman,serif" font-style="italic" font-size="14.00">In order for (white and effective) lead white to</text>
<text text-anchor="start" x="336.87" y="-1929.48" font-family="Times New Roman,serif" font-style="italic" font-size="14.00">come about in the best variety &#45; to be used for</text>
<text text-anchor="start" x="327.12" y="-1915.48" font-family="Times New Roman,serif" font-style="italic" font-size="14.00">ophthalmological properties &#45; as well as in worse</text>
<text text-anchor="start" x="344.37" y="-1901.48" font-family="Times New Roman,serif" font-style="italic" font-size="14.00">varieties, .(In summer, ) pour most pungent</text>
<text text-anchor="start" x="328.99" y="-1887.48" font-family="Times New Roman,serif" font-style="italic" font-size="14.00">vinegar into a broad&#45;mouthed jar OR pot&#45;bellied</text>
<text text-anchor="start" x="340.62" y="-1873.48" font-family="Times New Roman,serif" font-style="italic" font-size="14.00">clay jar, .Place a leaden brick on a lattice of</text>
<text text-anchor="start" x="336.12" y="-1859.48" font-family="Times New Roman,serif" font-style="italic" font-size="14.00">reeds, .Lay the lattice of reeds with the leaden</text>
<text text-anchor="start" x="336.12" y="-1845.48" font-family="Times New Roman,serif" font-style="italic" font-size="14.00">brick onto the mouth of the pot, .Above, throw</text>
<text text-anchor="start" x="328.24" y="-1831.48" font-family="Times New Roman,serif" font-style="italic" font-size="14.00">over covers to prevent vinegar from evaporating,</text>
<text text-anchor="start" x="333.87" y="-1817.48" font-family="Times New Roman,serif" font-style="italic" font-size="14.00">.Wait until (the leaden brick), crumbling down,</text>
<text text-anchor="start" x="331.24" y="-1803.48" font-family="Times New Roman,serif" font-style="italic" font-size="14.00">has strained through (the lattice), .Decant away</text>
<text text-anchor="start" x="333.12" y="-1789.48" font-family="Times New Roman,serif" font-style="italic" font-size="14.00">the clean fluid that floats on top (of the vinegar</text>
<text text-anchor="start" x="331.99" y="-1775.48" font-family="Times New Roman,serif" font-style="italic" font-size="14.00">after the leaden brick has crumbled down in it),</text>
<text text-anchor="start" x="329.37" y="-1761.48" font-family="Times New Roman,serif" font-style="italic" font-size="14.00">.Pour the (remaining) viscous fluid into a vessel,</text>
<text text-anchor="start" x="330.12" y="-1747.48" font-family="Times New Roman,serif" font-style="italic" font-size="14.00">.Let the viscous fluid dry under the sun, .Smooth</text>
<text text-anchor="start" x="333.12" y="-1733.48" font-family="Times New Roman,serif" font-style="italic" font-size="14.00">the dried substance with a hand&#45;mill OR in any</text>
<text text-anchor="start" x="333.12" y="-1719.48" font-family="Times New Roman,serif" font-style="italic" font-size="14.00">way, .Sift the ground substance, .The substance</text>
<text text-anchor="start" x="351.12" y="-1705.48" font-family="Times New Roman,serif" font-style="italic" font-size="14.00">that is sifted away is the better variety of</text>
<text text-anchor="start" x="334.62" y="-1691.48" font-family="Times New Roman,serif" font-style="italic" font-size="14.00">(white and effective) lead white, that should be</text>
<text text-anchor="start" x="324.87" y="-1677.48" font-family="Times New Roman,serif" font-style="italic" font-size="14.00">picked also for ophthalmological properties, .Thin</text>
<text text-anchor="start" x="333.49" y="-1663.48" font-family="Times New Roman,serif" font-style="italic" font-size="14.00">(with a hand&#45;mill OR in any way) and sift what</text>
<text text-anchor="start" x="331.99" y="-1649.48" font-family="Times New Roman,serif" font-style="italic" font-size="14.00">remains (above the sieve) of the solid substance</text>
<text text-anchor="start" x="342.87" y="-1635.48" font-family="Times New Roman,serif" font-style="italic" font-size="14.00">{, repeat, and do it again a third and fourth</text>
<text text-anchor="start" x="338.37" y="-1621.48" font-family="Times New Roman,serif" font-style="italic" font-size="14.00">time}, .The substances that are sifted away at</text>
<text text-anchor="start" x="358.24" y="-1607.48" font-family="Times New Roman,serif" font-style="italic" font-size="14.00">each repeated thinning and sifting are</text>
<text text-anchor="start" x="345.12" y="-1593.48" font-family="Times New Roman,serif" font-style="italic" font-size="14.00">progressively worse varieties of (white and</text>
<text text-anchor="start" x="407.74" y="-1579.48" font-family="Times New Roman,serif" font-style="italic" font-size="14.00">effective) lead white</text>
<text text-anchor="start" x="359.74" y="-1567.38" font-family="Times New Roman,serif" font-size="12.00">&quot;ψιμύθιον δὲ γίνεται ... τέταρτον ποιητέον&quot;</text>
</g>
<!-- tlg0656_tlg001.q213927001 -->
<g id="node2" class="node">
<title>tlg0656_tlg001.q213927001</title>
<path fill="#f0faf0" stroke="#82b366" d="M765.52,-1716.2C765.52,-1716.2 642.27,-1716.2 642.27,-1716.2 636.27,-1716.2 630.27,-1710.2 630.27,-1704.2 630.27,-1704.2 630.27,-1664.2 630.27,-1664.2 630.27,-1658.2 636.27,-1652.2 642.27,-1652.2 642.27,-1652.2 765.52,-1652.2 765.52,-1652.2 771.52,-1652.2 777.52,-1658.2 777.52,-1664.2 777.52,-1664.2 777.52,-1704.2 777.52,-1704.2 777.52,-1710.2 771.52,-1716.2 765.52,-1716.2"/>
<text text-anchor="start" x="700.52" y="-1699.9" font-family="Times New Roman,serif" font-weight="bold" font-size="14.00">1</text>
<text text-anchor="start" x="638.27" y="-1685.9" font-family="Times New Roman,serif" font-style="italic" font-size="14.00">(In summer, ) pour most</text>
<text text-anchor="start" x="642.02" y="-1671.9" font-family="Times New Roman,serif" font-style="italic" font-size="14.00">pungent vinegar into a</text>
<text text-anchor="start" x="652.52" y="-1657.9" font-family="Times New Roman,serif" font-style="italic" font-size="14.00">broad&#45;mouthed jar</text>
</g>
<!-- tlg0656_tlg001.q213927002 -->
<g id="node3" class="node">
<title>tlg0656_tlg001.q213927002</title>
<path fill="#c1d5c2" stroke="#a2b9a3" d="M852.15,-1618.29C852.15,-1618.29 719.9,-1618.29 719.9,-1618.29 713.9,-1618.29 707.9,-1612.29 707.9,-1606.29 707.9,-1606.29 707.9,-1580.29 707.9,-1580.29 707.9,-1574.29 713.9,-1568.29 719.9,-1568.29 719.9,-1568.29 852.15,-1568.29 852.15,-1568.29 858.15,-1568.29 864.15,-1574.29 864.15,-1580.29 864.15,-1580.29 864.15,-1606.29 864.15,-1606.29 864.15,-1612.29 858.15,-1618.29 852.15,-1618.29"/>
<text text-anchor="start" x="782.65" y="-1601.99" font-family="Times New Roman,serif" font-weight="bold" font-size="14.00">2</text>
<text text-anchor="start" x="715.9" y="-1587.99" font-family="Times New Roman,serif" font-style="italic" font-size="14.00">Place a leaden brick on a</text>
<text text-anchor="start" x="745.53" y="-1573.99" font-family="Times New Roman,serif" font-style="italic" font-size="14.00">lattice of reeds</text>
</g>
<!-- tlg0656_tlg001.q213927003 -->
<g id="node4" class="node">
<title>tlg0656_tlg001.q213927003</title>
<path fill="#f0faf0" stroke="#82b366" d="M762.04,-1369.66C762.04,-1369.66 617.04,-1369.66 617.04,-1369.66 611.04,-1369.66 605.04,-1363.66 605.04,-1357.66 605.04,-1357.66 605.04,-1303.66 605.04,-1303.66 605.04,-1297.66 611.04,-1291.66 617.04,-1291.66 617.04,-1291.66 762.04,-1291.66 762.04,-1291.66 768.04,-1291.66 774.04,-1297.66 774.04,-1303.66 774.04,-1303.66 774.04,-1357.66 774.04,-1357.66 774.04,-1363.66 768.04,-1369.66 762.04,-1369.66"/>
<text text-anchor="start" x="686.16" y="-1353.36" font-family="Times New Roman,serif" font-weight="bold" font-size="14.00">3</text>
<text text-anchor="start" x="613.41" y="-1339.36" font-family="Times New Roman,serif" font-style="italic" font-size="14.00">Lay the lattice of reeds with</text>
<text text-anchor="start" x="621.66" y="-1325.36" font-family="Times New Roman,serif" font-style="italic" font-size="14.00">the leaden brick onto the</text>
<text text-anchor="start" x="613.04" y="-1311.36" font-family="Times New Roman,serif" font-style="italic" font-size="14.00">mouth of the pot (i.e., of the</text>
<text text-anchor="start" x="635.91" y="-1297.36" font-family="Times New Roman,serif" font-style="italic" font-size="14.00">broad&#45;mouthed jar)</text>
</g>
<!-- tlg0656_tlg001.q213927004 -->
<g id="node5" class="node">
<title>tlg0656_tlg001.q213927004</title>
<path fill="#f0faf0" stroke="#82b366" d="M693.52,-1231.01C693.52,-1231.01 543.27,-1231.01 543.27,-1231.01 537.27,-1231.01 531.27,-1225.01 531.27,-1219.01 531.27,-1219.01 531.27,-1179.01 531.27,-1179.01 531.27,-1173.01 537.27,-1167.01 543.27,-1167.01 543.27,-1167.01 693.52,-1167.01 693.52,-1167.01 699.52,-1167.01 705.52,-1173.01 705.52,-1179.01 705.52,-1179.01 705.52,-1219.01 705.52,-1219.01 705.52,-1225.01 699.52,-1231.01 693.52,-1231.01"/>
<text text-anchor="start" x="615.02" y="-1214.71" font-family="Times New Roman,serif" font-weight="bold" font-size="14.00">4</text>
<text text-anchor="start" x="539.27" y="-1200.71" font-family="Times New Roman,serif" font-style="italic" font-size="14.00">Above, throw over covers (to</text>
<text text-anchor="start" x="561.02" y="-1186.71" font-family="Times New Roman,serif" font-style="italic" font-size="14.00">prevent vinegar from</text>
<text text-anchor="start" x="583.52" y="-1172.71" font-family="Times New Roman,serif" font-style="italic" font-size="14.00">evaporating)</text>
</g>
<!-- tlg0656_tlg001.q213927005 -->
<g id="node6" class="node">
<title>tlg0656_tlg001.q213927005</title>
<path fill="#f0faf0" stroke="#82b366" d="M640.14,-1060.24C640.14,-1060.24 485.39,-1060.24 485.39,-1060.24 479.39,-1060.24 473.39,-1054.24 473.39,-1048.24 473.39,-1048.24 473.39,-1008.24 473.39,-1008.24 473.39,-1002.24 479.39,-996.24 485.39,-996.24 485.39,-996.24 640.14,-996.24 640.14,-996.24 646.14,-996.24 652.14,-1002.24 652.14,-1008.24 652.14,-1008.24 652.14,-1048.24 652.14,-1048.24 652.14,-1054.24 646.14,-1060.24 640.14,-1060.24"/>
<text text-anchor="start" x="559.39" y="-1043.94" font-family="Times New Roman,serif" font-weight="bold" font-size="14.00">5</text>
<text text-anchor="start" x="484.01" y="-1029.94" font-family="Times New Roman,serif" font-style="italic" font-size="14.00">Wait until (the leaden brick),</text>
<text text-anchor="start" x="481.39" y="-1015.94" font-family="Times New Roman,serif" font-style="italic" font-size="14.00">crumbling down, has strained</text>
<text text-anchor="start" x="508.01" y="-1001.94" font-family="Times New Roman,serif" font-style="italic" font-size="14.00">through (the lattice)</text>
</g>
<!-- tlg0656_tlg001.q213927006 -->
<g id="node7" class="node">
<title>tlg0656_tlg001.q213927006</title>
<path fill="#c1d5c2" stroke="#a2b9a3" d="M563.84,-924.62C563.84,-924.62 409.84,-924.62 409.84,-924.62 403.84,-924.62 397.84,-918.62 397.84,-912.62 397.84,-912.62 397.84,-858.62 397.84,-858.62 397.84,-852.62 403.84,-846.62 409.84,-846.62 409.84,-846.62 563.84,-846.62 563.84,-846.62 569.84,-846.62 575.84,-852.62 575.84,-858.62 575.84,-858.62 575.84,-912.62 575.84,-912.62 575.84,-918.62 569.84,-924.62 563.84,-924.62"/>
<text text-anchor="start" x="483.46" y="-908.32" font-family="Times New Roman,serif" font-weight="bold" font-size="14.00">6</text>
<text text-anchor="start" x="410.34" y="-894.32" font-family="Times New Roman,serif" font-style="italic" font-size="14.00">Decant away the clean fluid</text>
<text text-anchor="start" x="420.84" y="-880.32" font-family="Times New Roman,serif" font-style="italic" font-size="14.00">that floats on top (of the</text>
<text text-anchor="start" x="405.84" y="-866.32" font-family="Times New Roman,serif" font-style="italic" font-size="14.00">vinegar after the leaden brick</text>
<text text-anchor="start" x="418.59" y="-852.32" font-family="Times New Roman,serif" font-style="italic" font-size="14.00">has crumbled down in it)</text>
</g>
<!-- tlg0656_tlg001.q213927007 -->
<g id="node8" class="node">
<title>tlg0656_tlg001.q213927007</title>
<path fill="#c1d5c2" stroke="#a2b9a3" d="M575.91,-788.6C575.91,-788.6 424.91,-788.6 424.91,-788.6 418.91,-788.6 412.91,-782.6 412.91,-776.6 412.91,-776.6 412.91,-750.6 412.91,-750.6 412.91,-744.6 418.91,-738.6 424.91,-738.6 424.91,-738.6 575.91,-738.6 575.91,-738.6 581.91,-738.6 587.91,-744.6 587.91,-750.6 587.91,-750.6 587.91,-776.6 587.91,-776.6 587.91,-782.6 581.91,-788.6 575.91,-788.6"/>
<text text-anchor="start" x="497.03" y="-772.3" font-family="Times New Roman,serif" font-weight="bold" font-size="14.00">7</text>
<text text-anchor="start" x="420.91" y="-758.3" font-family="Times New Roman,serif" font-style="italic" font-size="14.00">Pour the (remaining) viscous</text>
<text text-anchor="start" x="452.41" y="-744.3" font-family="Times New Roman,serif" font-style="italic" font-size="14.00">fluid into a vessel</text>
</g>
<!-- tlg0656_tlg001.q213927008 -->
<g id="node9" class="node">
<title>tlg0656_tlg001.q213927008</title>
<path fill="#c1d5c2" stroke="#a2b9a3" d="M637.08,-690.19C637.08,-690.19 513.83,-690.19 513.83,-690.19 507.83,-690.19 501.83,-684.19 501.83,-678.19 501.83,-678.19 501.83,-652.19 501.83,-652.19 501.83,-646.19 507.83,-640.19 513.83,-640.19 513.83,-640.19 637.08,-640.19 637.08,-640.19 643.08,-640.19 649.08,-646.19 649.08,-652.19 649.08,-652.19 649.08,-678.19 649.08,-678.19 649.08,-684.19 643.08,-690.19 637.08,-690.19"/>
<text text-anchor="start" x="572.08" y="-673.89" font-family="Times New Roman,serif" font-weight="bold" font-size="14.00">8</text>
<text text-anchor="start" x="509.83" y="-659.89" font-family="Times New Roman,serif" font-style="italic" font-size="14.00">Let the viscous fluid dry</text>
<text text-anchor="start" x="538.33" y="-645.89" font-family="Times New Roman,serif" font-style="italic" font-size="14.00">under the sun</text>
</g>
<!-- tlg0656_tlg001.q213927009 -->
<g id="node10" class="node">
<title>tlg0656_tlg001.q213927009</title>
<path fill="#f0faf0" stroke="#82b366" d="M830.06,-632.9C830.06,-632.9 669.31,-632.9 669.31,-632.9 663.31,-632.9 657.31,-626.9 657.31,-620.9 657.31,-620.9 657.31,-594.9 657.31,-594.9 657.31,-588.9 663.31,-582.9 669.31,-582.9 669.31,-582.9 830.06,-582.9 830.06,-582.9 836.06,-582.9 842.06,-588.9 842.06,-594.9 842.06,-594.9 842.06,-620.9 842.06,-620.9 842.06,-626.9 836.06,-632.9 830.06,-632.9"/>
<text text-anchor="start" x="746.31" y="-616.6" font-family="Times New Roman,serif" font-weight="bold" font-size="14.00">9</text>
<text text-anchor="start" x="665.31" y="-602.6" font-family="Times New Roman,serif" font-style="italic" font-size="14.00">Grind the dried substance with</text>
<text text-anchor="start" x="718.19" y="-588.6" font-family="Times New Roman,serif" font-style="italic" font-size="14.00">a hand&#45;mill</text>
</g>
<!-- tlg0656_tlg001.q213927010 -->
<g id="node11" class="node">
<title>tlg0656_tlg001.q213927010</title>
<path fill="#f0faf0" stroke="#82b366" d="M914.93,-468.08C914.93,-468.08 784.93,-468.08 784.93,-468.08 778.93,-468.08 772.93,-462.08 772.93,-456.08 772.93,-456.08 772.93,-444.08 772.93,-444.08 772.93,-438.08 778.93,-432.08 784.93,-432.08 784.93,-432.08 914.93,-432.08 914.93,-432.08 920.93,-432.08 926.93,-438.08 926.93,-444.08 926.93,-444.08 926.93,-456.08 926.93,-456.08 926.93,-462.08 920.93,-468.08 914.93,-468.08"/>
<text text-anchor="start" x="843.18" y="-451.78" font-family="Times New Roman,serif" font-weight="bold" font-size="14.00">10</text>
<text text-anchor="start" x="780.93" y="-437.78" font-family="Times New Roman,serif" font-style="italic" font-size="14.00">Sift the ground substance</text>
</g>
<!-- tlg0656_tlg001.q213927011 -->
<g id="node12" class="node">
<title>tlg0656_tlg001.q213927011</title>
<path fill="#f0faf0" stroke="#82b366" d="M1039.47,-351.57C1039.47,-351.57 894.47,-351.57 894.47,-351.57 888.47,-351.57 882.47,-345.57 882.47,-339.57 882.47,-339.57 882.47,-257.57 882.47,-257.57 882.47,-251.57 888.47,-245.57 894.47,-245.57 894.47,-245.57 1039.47,-245.57 1039.47,-245.57 1045.47,-245.57 1051.47,-251.57 1051.47,-257.57 1051.47,-257.57 1051.47,-339.57 1051.47,-339.57 1051.47,-345.57 1045.47,-351.57 1039.47,-351.57"/>
<text text-anchor="start" x="960.59" y="-335.27" font-family="Times New Roman,serif" font-weight="bold" font-size="14.00">11</text>
<text text-anchor="start" x="893.09" y="-321.27" font-family="Times New Roman,serif" font-style="italic" font-size="14.00">The substance that is sifted</text>
<text text-anchor="start" x="890.84" y="-307.27" font-family="Times New Roman,serif" font-style="italic" font-size="14.00">away is the better variety of</text>
<text text-anchor="start" x="897.97" y="-293.27" font-family="Times New Roman,serif" font-style="italic" font-size="14.00">(white and effective) lead</text>
<text text-anchor="start" x="890.47" y="-279.27" font-family="Times New Roman,serif" font-style="italic" font-size="14.00">white, that should be picked</text>
<text text-anchor="start" x="896.47" y="-265.27" font-family="Times New Roman,serif" font-style="italic" font-size="14.00">also for ophthalmological</text>
<text text-anchor="start" x="939.22" y="-251.27" font-family="Times New Roman,serif" font-style="italic" font-size="14.00">properties</text>
</g>
<!-- tlg0656_tlg001.q213927012 -->
<g id="node13" class="node">
<title>tlg0656_tlg001.q213927012</title>
<path fill="#c1d5c2" stroke="#a2b9a3" d="M1034.29,-192.04C1034.29,-192.04 887.79,-192.04 887.79,-192.04 881.79,-192.04 875.79,-186.04 875.79,-180.04 875.79,-180.04 875.79,-112.04 875.79,-112.04 875.79,-106.04 881.79,-100.04 887.79,-100.04 887.79,-100.04 1034.29,-100.04 1034.29,-100.04 1040.29,-100.04 1046.29,-106.04 1046.29,-112.04 1046.29,-112.04 1046.29,-180.04 1046.29,-180.04 1046.29,-186.04 1040.29,-192.04 1034.29,-192.04"/>
<text text-anchor="start" x="954.29" y="-175.74" font-family="Times New Roman,serif" font-weight="bold" font-size="14.00">12</text>
<text text-anchor="start" x="885.29" y="-161.74" font-family="Times New Roman,serif" font-style="italic" font-size="14.00">Thin (with a hand&#45;mill) and</text>
<text text-anchor="start" x="883.79" y="-147.74" font-family="Times New Roman,serif" font-style="italic" font-size="14.00">sift what remains (above the</text>
<text text-anchor="start" x="884.54" y="-133.74" font-family="Times New Roman,serif" font-style="italic" font-size="14.00">sieve) of the solid substance</text>
<text text-anchor="start" x="886.79" y="-119.74" font-family="Times New Roman,serif" font-style="italic" font-size="14.00">{, repeat, and do it again a</text>
<text text-anchor="start" x="901.42" y="-105.74" font-family="Times New Roman,serif" font-style="italic" font-size="14.00">third and fourth time}</text>
</g>
<!-- tlg0656_tlg001.q213927013 -->
<g id="node14" class="node">
<title>tlg0656_tlg001.q213927013</title>
<path fill="#c1d5c2" stroke="#a2b9a3" d="M1050.44,-92C1050.44,-92 886.69,-92 886.69,-92 880.69,-92 874.69,-86 874.69,-80 874.69,-80 874.69,-12 874.69,-12 874.69,-6 880.69,0 886.69,0 886.69,0 1050.44,0 1050.44,0 1056.44,0 1062.44,-6 1062.44,-12 1062.44,-12 1062.44,-80 1062.44,-80 1062.44,-86 1056.44,-92 1050.44,-92"/>
<text text-anchor="start" x="961.82" y="-75.7" font-family="Times New Roman,serif" font-weight="bold" font-size="14.00">13</text>
<text text-anchor="start" x="887.57" y="-61.7" font-family="Times New Roman,serif" font-style="italic" font-size="14.00">The substances that are sifted</text>
<text text-anchor="start" x="882.69" y="-47.7" font-family="Times New Roman,serif" font-style="italic" font-size="14.00">away at each repeated thinning</text>
<text text-anchor="start" x="890.57" y="-33.7" font-family="Times New Roman,serif" font-style="italic" font-size="14.00">and sifting are progressively</text>
<text text-anchor="start" x="889.44" y="-19.7" font-family="Times New Roman,serif" font-style="italic" font-size="14.00">worse varieties of (white and</text>
<text text-anchor="start" x="913.82" y="-5.7" font-family="Times New Roman,serif" font-style="italic" font-size="14.00">effective) lead white</text>
</g>
<!-- tlg0093_tlg004.P151115 -->
<g id="node15" class="node">
<title>tlg0093_tlg004.P151115</title>
<path fill="#f9edff" stroke="#9673a6" d="M459.01,-1373.12C459.01,-1373.12 459.01,-1434.08 459.01,-1434.08 459.01,-1440.08 453.54,-1448.54 448.07,-1451.01 448.07,-1451.01 336.68,-1501.22 336.68,-1501.22 331.21,-1503.69 319.74,-1506.16 313.74,-1506.16 313.74,-1506.16 149.27,-1506.16 149.27,-1506.16 143.27,-1506.16 131.8,-1503.69 126.33,-1501.22 126.33,-1501.22 14.94,-1451.01 14.94,-1451.01 9.47,-1448.54 4,-1440.08 4,-1434.08 4,-1434.08 4,-1373.12 4,-1373.12 4,-1367.12 9.47,-1358.65 14.94,-1356.18 14.94,-1356.18 126.33,-1305.97 126.33,-1305.97 131.8,-1303.5 143.27,-1301.04 149.27,-1301.04 149.27,-1301.04 313.74,-1301.04 313.74,-1301.04 319.74,-1301.04 331.21,-1303.5 336.68,-1305.97 336.68,-1305.97 448.07,-1356.18 448.07,-1356.18 453.54,-1358.65 459.01,-1367.12 459.01,-1373.12"/>
<path fill="none" stroke="#9673a6" d="M463.01,-1370.53C463.01,-1370.53 463.01,-1436.66 463.01,-1436.66 463.01,-1442.66 457.54,-1451.13 452.07,-1453.59 452.07,-1453.59 337.54,-1505.22 337.54,-1505.22 332.07,-1507.69 320.6,-1510.16 314.6,-1510.16 314.6,-1510.16 148.41,-1510.16 148.41,-1510.16 142.41,-1510.16 130.94,-1507.69 125.47,-1505.22 125.47,-1505.22 10.94,-1453.59 10.94,-1453.59 5.47,-1451.13 0,-1442.66 0,-1436.66 0,-1436.66 0,-1370.53 0,-1370.53 0,-1364.53 5.47,-1356.06 10.94,-1353.6 10.94,-1353.6 125.47,-1301.97 125.47,-1301.97 130.94,-1299.5 142.41,-1297.04 148.41,-1297.04 148.41,-1297.04 314.6,-1297.04 314.6,-1297.04 320.6,-1297.04 332.07,-1299.5 337.54,-1301.97 337.54,-1301.97 452.07,-1353.6 452.07,-1353.6 457.54,-1356.06 463.01,-1364.53 463.01,-1370.53"/>
<text text-anchor="start" x="183.13" y="-1454.3" font-family="Times New Roman,serif" font-weight="bold" font-size="14.00">PROPOSITION</text>
<text text-anchor="start" x="102.13" y="-1440.3" font-family="Times New Roman,serif" font-style="italic" font-size="14.00">{Theophrastus recipe} To produce lead white: .</text>
<text text-anchor="start" x="97.26" y="-1426.3" font-family="Times New Roman,serif" font-style="italic" font-size="14.00">Place a piece of lead over vinegar in closed jars,</text>
<text text-anchor="start" x="109.26" y="-1412.3" font-family="Times New Roman,serif" font-style="italic" font-size="14.00">.Wait for lead to acquire thickness .Open the</text>
<text text-anchor="start" x="103.63" y="-1398.3" font-family="Times New Roman,serif" font-style="italic" font-size="14.00">jars, .Scrape away from the lead the substance</text>
<text text-anchor="start" x="108.88" y="-1384.3" font-family="Times New Roman,serif" font-style="italic" font-size="14.00">that has formed on its surface, repeating this</text>
<text text-anchor="start" x="90.88" y="-1370.3" font-family="Times New Roman,serif" font-style="italic" font-size="14.00">until you have consumed it completely, .Grind what</text>
<text text-anchor="start" x="100.63" y="-1356.3" font-family="Times New Roman,serif" font-style="italic" font-size="14.00">you have scraped away, .Filter off what you are</text>
<text text-anchor="start" x="110.76" y="-1342.3" font-family="Times New Roman,serif" font-style="italic" font-size="14.00">grinding, .The final precipitate is lead white</text>
</g>
<!-- tlg0093_tlg004.P151115_to_tlg0656_tlg001.T213927_1 -->
<g id="node16" class="node">
<title>tlg0093_tlg004.P151115_to_tlg0656_tlg001.T213927_1</title>
<path fill="#f9edff" stroke="#9673a6" d="M290.99,-1562.45C290.99,-1562.45 290.99,-1578.4 290.99,-1578.4 290.99,-1584.4 286.43,-1594.3 281.87,-1598.19 281.87,-1598.19 267.05,-1610.85 267.05,-1610.85 262.49,-1614.75 251.93,-1618.64 245.93,-1618.64 245.93,-1618.64 223.17,-1618.64 223.17,-1618.64 217.17,-1618.64 206.6,-1614.75 202.04,-1610.85 202.04,-1610.85 187.22,-1598.19 187.22,-1598.19 182.66,-1594.3 178.1,-1584.4 178.1,-1578.4 178.1,-1578.4 178.1,-1562.45 178.1,-1562.45 178.1,-1556.45 182.66,-1546.56 187.22,-1542.66 187.22,-1542.66 202.04,-1530 202.04,-1530 206.6,-1526.11 217.17,-1522.21 223.17,-1522.21 223.17,-1522.21 245.93,-1522.21 245.93,-1522.21 251.93,-1522.21 262.49,-1526.11 267.05,-1530 267.05,-1530 281.87,-1542.66 281.87,-1542.66 286.43,-1546.56 290.99,-1556.45 290.99,-1562.45"/>
<path fill="none" stroke="#9673a6" d="M294.99,-1560.61C294.99,-1560.61 294.99,-1580.24 294.99,-1580.24 294.99,-1586.24 290.43,-1596.14 285.87,-1600.04 285.87,-1600.04 268.53,-1614.85 268.53,-1614.85 263.96,-1618.75 253.4,-1622.64 247.4,-1622.64 247.4,-1622.64 221.69,-1622.64 221.69,-1622.64 215.69,-1622.64 205.13,-1618.75 200.57,-1614.85 200.57,-1614.85 183.22,-1600.04 183.22,-1600.04 178.66,-1596.14 174.1,-1586.24 174.1,-1580.24 174.1,-1580.24 174.1,-1560.61 174.1,-1560.61 174.1,-1554.61 178.66,-1544.71 183.22,-1540.82 183.22,-1540.82 200.57,-1526 200.57,-1526 205.13,-1522.11 215.69,-1518.21 221.69,-1518.21 221.69,-1518.21 247.4,-1518.21 247.4,-1518.21 253.4,-1518.21 263.96,-1522.11 268.53,-1526 268.53,-1526 285.87,-1540.82 285.87,-1540.82 290.43,-1544.71 294.99,-1554.61 294.99,-1560.61"/>
<text text-anchor="start" x="208.67" y="-1588.48" font-family="Times New Roman,serif" font-size="11.00">MATCHES</text>
<text text-anchor="start" x="211.67" y="-1577.48" font-family="Times New Roman,serif" font-style="italic" font-size="11.00">extending,</text>
<text text-anchor="start" x="205.67" y="-1566.48" font-family="Times New Roman,serif" font-style="italic" font-size="11.00">generalizing,</text>
<text text-anchor="start" x="210.55" y="-1555.48" font-family="Times New Roman,serif" font-style="italic" font-size="11.00">specifying,</text>
<text text-anchor="start" x="217.3" y="-1544.48" font-family="Times New Roman,serif" font-style="italic" font-size="11.00">altering</text>
</g>
<!-- tlg0093_tlg004.q151116001 -->
<g id="node17" class="node">
<title>tlg0093_tlg004.q151116001</title>
<path fill="#f9edff" stroke="#9673a6" d="M552.86,-1289.02C552.86,-1289.02 418.36,-1289.02 418.36,-1289.02 412.36,-1289.02 406.36,-1283.02 406.36,-1277.02 406.36,-1277.02 406.36,-1251.02 406.36,-1251.02 406.36,-1245.02 412.36,-1239.02 418.36,-1239.02 418.36,-1239.02 552.86,-1239.02 552.86,-1239.02 558.86,-1239.02 564.86,-1245.02 564.86,-1251.02 564.86,-1251.02 564.86,-1277.02 564.86,-1277.02 564.86,-1283.02 558.86,-1289.02 552.86,-1289.02"/>
<text text-anchor="start" x="482.24" y="-1272.72" font-family="Times New Roman,serif" font-weight="bold" font-size="14.00">1</text>
<text text-anchor="start" x="414.36" y="-1258.72" font-family="Times New Roman,serif" font-style="italic" font-size="14.00">Place a piece of lead over</text>
<text text-anchor="start" x="426.36" y="-1244.72" font-family="Times New Roman,serif" font-style="italic" font-size="14.00">vinegar in closed jars</text>
</g>
<!-- tlg0093_tlg004.q151116002 -->
<g id="node18" class="node">
<title>tlg0093_tlg004.q151116002</title>
<path fill="#f9edff" stroke="#9673a6" d="M809.94,-1113.71C809.94,-1113.71 687.44,-1113.71 687.44,-1113.71 681.44,-1113.71 675.44,-1107.71 675.44,-1101.71 675.44,-1101.71 675.44,-1075.71 675.44,-1075.71 675.44,-1069.71 681.44,-1063.71 687.44,-1063.71 687.44,-1063.71 809.94,-1063.71 809.94,-1063.71 815.94,-1063.71 821.94,-1069.71 821.94,-1075.71 821.94,-1075.71 821.94,-1101.71 821.94,-1101.71 821.94,-1107.71 815.94,-1113.71 809.94,-1113.71"/>
<text text-anchor="start" x="745.32" y="-1097.41" font-family="Times New Roman,serif" font-weight="bold" font-size="14.00">2</text>
<text text-anchor="start" x="683.44" y="-1083.41" font-family="Times New Roman,serif" font-style="italic" font-size="14.00">Wait for lead to acquire</text>
<text text-anchor="start" x="723.94" y="-1069.41" font-family="Times New Roman,serif" font-style="italic" font-size="14.00">thickness</text>
</g>
<!-- tlg0093_tlg004.q151116003 -->
<g id="node19" class="node">
<title>tlg0093_tlg004.q151116003</title>
<path fill="#f9edff" stroke="#9673a6" d="M918.63,-1033.96C918.63,-1033.96 852.38,-1033.96 852.38,-1033.96 846.38,-1033.96 840.38,-1027.96 840.38,-1021.96 840.38,-1021.96 840.38,-1009.96 840.38,-1009.96 840.38,-1003.96 846.38,-997.96 852.38,-997.96 852.38,-997.96 918.63,-997.96 918.63,-997.96 924.63,-997.96 930.63,-1003.96 930.63,-1009.96 930.63,-1009.96 930.63,-1021.96 930.63,-1021.96 930.63,-1027.96 924.63,-1033.96 918.63,-1033.96"/>
<text text-anchor="start" x="882.13" y="-1017.66" font-family="Times New Roman,serif" font-weight="bold" font-size="14.00">3</text>
<text text-anchor="start" x="848.38" y="-1003.66" font-family="Times New Roman,serif" font-style="italic" font-size="14.00">Open the jars</text>
</g>
<!-- tlg0093_tlg004.q151116004 -->
<g id="node20" class="node">
<title>tlg0093_tlg004.q151116004</title>
<path fill="#f9edff" stroke="#9673a6" d="M1016.19,-950.71C1016.19,-950.71 857.69,-950.71 857.69,-950.71 851.69,-950.71 845.69,-944.71 845.69,-938.71 845.69,-938.71 845.69,-870.71 845.69,-870.71 845.69,-864.71 851.69,-858.71 857.69,-858.71 857.69,-858.71 1016.19,-858.71 1016.19,-858.71 1022.19,-858.71 1028.19,-864.71 1028.19,-870.71 1028.19,-870.71 1028.19,-938.71 1028.19,-938.71 1028.19,-944.71 1022.19,-950.71 1016.19,-950.71"/>
<text text-anchor="start" x="933.56" y="-934.41" font-family="Times New Roman,serif" font-weight="bold" font-size="14.00">4</text>
<text text-anchor="start" x="853.69" y="-920.41" font-family="Times New Roman,serif" font-style="italic" font-size="14.00">Scrape away from the lead the</text>
<text text-anchor="start" x="857.06" y="-906.41" font-family="Times New Roman,serif" font-style="italic" font-size="14.00">substance that has formed on</text>
<text text-anchor="start" x="867.56" y="-892.41" font-family="Times New Roman,serif" font-style="italic" font-size="14.00">its surface, repeating this</text>
<text text-anchor="start" x="863.81" y="-878.41" font-family="Times New Roman,serif" font-style="italic" font-size="14.00">until you have consumed it</text>
<text text-anchor="start" x="907.69" y="-864.41" font-family="Times New Roman,serif" font-style="italic" font-size="14.00">completely</text>
</g>
<!-- tlg0093_tlg004.q151116005 -->
<g id="node21" class="node">
<title>tlg0093_tlg004.q151116005</title>
<path fill="#f9edff" stroke="#9673a6" d="M993.15,-765.28C993.15,-765.28 839.9,-765.28 839.9,-765.28 833.9,-765.28 827.9,-759.28 827.9,-753.28 827.9,-753.28 827.9,-727.28 827.9,-727.28 827.9,-721.28 833.9,-715.28 839.9,-715.28 839.9,-715.28 993.15,-715.28 993.15,-715.28 999.15,-715.28 1005.15,-721.28 1005.15,-727.28 1005.15,-727.28 1005.15,-753.28 1005.15,-753.28 1005.15,-759.28 999.15,-765.28 993.15,-765.28"/>
<text text-anchor="start" x="913.15" y="-748.98" font-family="Times New Roman,serif" font-weight="bold" font-size="14.00">5</text>
<text text-anchor="start" x="835.9" y="-734.98" font-family="Times New Roman,serif" font-style="italic" font-size="14.00">Grind what you have scraped</text>
<text text-anchor="start" x="902.28" y="-720.98" font-family="Times New Roman,serif" font-style="italic" font-size="14.00">away</text>
</g>
<!-- tlg0093_tlg004.q151116006 -->
<g id="node22" class="node">
<title>tlg0093_tlg004.q151116006</title>
<path fill="#f9edff" stroke="#9673a6" d="M1079.68,-601.83C1079.68,-601.83 963.93,-601.83 963.93,-601.83 957.93,-601.83 951.93,-595.83 951.93,-589.83 951.93,-589.83 951.93,-563.83 951.93,-563.83 951.93,-557.83 957.93,-551.83 963.93,-551.83 963.93,-551.83 1079.68,-551.83 1079.68,-551.83 1085.68,-551.83 1091.68,-557.83 1091.68,-563.83 1091.68,-563.83 1091.68,-589.83 1091.68,-589.83 1091.68,-595.83 1085.68,-601.83 1079.68,-601.83"/>
<text text-anchor="start" x="1018.43" y="-585.53" font-family="Times New Roman,serif" font-weight="bold" font-size="14.00">6</text>
<text text-anchor="start" x="959.93" y="-571.53" font-family="Times New Roman,serif" font-style="italic" font-size="14.00">Filter off what you are</text>
<text text-anchor="start" x="998.55" y="-557.53" font-family="Times New Roman,serif" font-style="italic" font-size="14.00">grinding</text>
</g>
<!-- tlg0093_tlg004.q151116007 -->
<g id="node23" class="node">
<title>tlg0093_tlg004.q151116007</title>
<path fill="#f9edff" stroke="#9673a6" d="M1153.06,-448.76C1153.06,-448.76 1010.31,-448.76 1010.31,-448.76 1004.31,-448.76 998.31,-442.76 998.31,-436.76 998.31,-436.76 998.31,-410.76 998.31,-410.76 998.31,-404.76 1004.31,-398.76 1010.31,-398.76 1010.31,-398.76 1153.06,-398.76 1153.06,-398.76 1159.06,-398.76 1165.06,-404.76 1165.06,-410.76 1165.06,-410.76 1165.06,-436.76 1165.06,-436.76 1165.06,-442.76 1159.06,-448.76 1153.06,-448.76"/>
<text text-anchor="start" x="1078.31" y="-432.46" font-family="Times New Roman,serif" font-weight="bold" font-size="14.00">7</text>
<text text-anchor="start" x="1006.31" y="-418.46" font-family="Times New Roman,serif" font-style="italic" font-size="14.00">The final precipitate is lead</text>
<text text-anchor="start" x="1067.06" y="-404.46" font-family="Times New Roman,serif" font-style="italic" font-size="14.00">white</text>
</g>
</g>
</svg>
